<svg xmlns="http://www.w3.org/2000/svg" width="1696.741" height="311.867" viewBox="0 0 1696.741 311.867"><g transform="translate(-162.96 -855.724)"><path d="M1592.855,1144.292q-23.078-23.294-23.078-56.486,0-33.406,23.078-56.6t56.486-23.188q33.406,0,56.6,23.188t23.188,56.6q0,33.191-23.188,56.486t-56.6,23.3Q1615.93,1167.591,1592.855,1144.292Zm14.176-99.234Q1590,1062.315,1590,1087.807q0,25.277,17.033,42.53t42.31,17.254q25.272,0,42.309-17.254t17.034-42.53q0-25.493-17.034-42.748t-42.309-17.254Q1624.064,1027.8,1607.031,1045.058ZM1315.75,1157.48a53.446,53.446,0,0,1-21.429-27.693l17.582-10.111q9.01,27.914,41.1,27.914,15.825,0,24.177-6.485a20.747,20.747,0,0,0,8.352-17.253q0-10.988-8.352-16.484t-27.913-11.649q-9.674-3.075-14.726-4.946a123.911,123.911,0,0,1-12.638-5.714q-7.583-3.843-11.319-7.913a39.7,39.7,0,0,1-6.7-10.66,36.035,36.035,0,0,1-2.967-14.945q0-20,14.067-31.759t34.286-11.759q18.241,0,31.76,9.231a57.481,57.481,0,0,1,20.33,24.4l-17.143,9.891q-9.892-23.737-34.947-23.737-12.528,0-20.22,6.154t-7.692,16.7q0,10.111,7.253,15.385t25.055,10.989q6.373,1.978,9.012,2.858t8.242,3.077q5.605,2.2,8.242,3.516t7.143,3.737a29.3,29.3,0,0,1,6.7,4.615q2.2,2.2,5.165,5.385a21.174,21.174,0,0,1,4.286,6.484,52.043,52.043,0,0,1,2.308,7.583,40.466,40.466,0,0,1,.989,9.121q0,20.224-14.726,32.2t-38.463,11.979Q1331.022,1167.591,1315.75,1157.48Zm-430.418-13.188q-23.077-23.294-23.078-56.486,0-33.406,23.078-56.6t56.486-23.188q33.407,0,56.6,23.188t23.188,56.6q0,33.191-23.188,56.486t-56.6,23.3Q908.406,1167.591,885.332,1144.292Zm14.177-99.234q-17.036,17.257-17.033,42.748,0,25.277,17.033,42.53t42.309,17.254q25.272,0,42.31-17.254t17.033-42.53q0-25.493-17.033-42.748t-42.31-17.254Q916.54,1027.8,899.509,1045.058ZM236.43,1166.031H163.124V1061.372c0-9.876-.033-25.774-.066-41.149C163.028,1006.062,163,992.687,163,985h73l.43,43v138.031h0ZM521,1166a57.807,57.807,0,0,0,6.206-2.234,84,84,0,0,0,14.207-7.613C551.348,1149.51,564.371,1137.5,570,1118c0,30.7.279,47.86.282,48.03h0Zm-223.908-.095v-78c0-.178-.316-17.883-.316-26.058a64.824,64.824,0,0,1,10.36-1.189c20.04-1.422,57.342-4.067,91.864-43.656a57.208,57.208,0,0,0,9-12c.056.572.131,1.22.21,1.907l0,.013A65.789,65.789,0,0,1,407,1032c-3.884,15.51-13.355,25.512-21.711,34.337C377.085,1075,370,1082.484,370,1093c0,12.576-.346,20.862-.349,20.944a29.869,29.869,0,0,0,3.271,10.4,18.979,18.979,0,0,0,17.541,10.4c2.722,0,5.432.118,8.3.243h.012c2.951.129,6,.261,9.153.261,16.374,0,35.265-3.463,62.392-28.585,36.531-33.831,35.647-105.456,27.056-136.284-9.9-35.524-26.933-63.4-81.168-92.564-4.139-2.226-7.161-4.49-8.982-6.73-1.7-2.1-2.326-4.127-1.846-6.033.689-2.738,3.612-5.068,8.45-6.738,4.907-1.695,11.46-2.59,18.949-2.59a125.126,125.126,0,0,1,33.583,5.01,148.333,148.333,0,0,1,38.3,17.081,143.441,143.441,0,0,1,29.7,24.652,135.081,135.081,0,0,1,20.211,28.976,139.109,139.109,0,0,1,11.645,31.283,144.429,144.429,0,0,1,4,31.573,287.33,287.33,0,0,1-2.05,41.293,204.779,204.779,0,0,1-4.186,22.739,164.064,164.064,0,0,1-7.351,22.816,135.434,135.434,0,0,1-11.311,21.906,118.9,118.9,0,0,1-37.679,37.127,140.981,140.981,0,0,1-27.955,13.245,242.041,242.041,0,0,1-24.125,7.16,183.218,183.218,0,0,1-20.788,3.711c-13.48,1.609-26.3,1.609-39.864,1.609Zm1457.111-1.173V1010.881h55.826q21.317,0,35.5,14.176t14.177,35.276q0,20.883-14.177,35.167t-35.5,14.286h-35.386v54.948Zm20.44-74.069h35.386q12.744,0,21.1-8.682t8.352-21.649q0-13.187-8.352-21.759t-21.1-8.572h-35.386Zm-249.651,74.069V1095.5h-74.728v69.233h-20.441V1010.881h20.441v65.277h74.728v-65.277h20.221v153.852Zm-257.513,0-66.377-73.85v73.85h-20.44V1010.881h20.44v69.453l64.179-69.453h25.056l-67.915,74.728,70.113,79.124Zm-129.587,0-34.507-58.9H1067.12v58.9h-20.441V1010.881h61.541a46.331,46.331,0,0,1,33.847,13.956,46.911,46.911,0,0,1,5.165,60.991,47.668,47.668,0,0,1-22.968,17.364l36.266,61.541Zm-70.771-77.366h41.1a25.819,25.819,0,0,0,19.452-8.462,28.5,28.5,0,0,0,8.022-20.331,28.131,28.131,0,0,0-8.022-20.22A25.986,25.986,0,0,0,1108.22,1030h-41.1ZM786.38,1164.733l-36.485-122.862-36.485,122.862H689.673l-44.178-153.852h21.54l35.166,126.6,37.364-126.6h20.66l37.364,126.6,35.166-126.6h21.54l-44.178,153.852ZM270.524,1027.58a22.384,22.384,0,0,1-7.576-3.538c-2.175-1.657-3.382-3.534-3.49-5.431-.153-2.676,1.823-6.719,12.107-10.792,16.994-6.731,35.6-15.331,44.746-28.081,8.139-11.344,16.795-37.049,7.285-61.363-11.639-29.751-35.17-32.241-58.275-32.241-11.532,0-25.29,5.481-29.32,20.865-.225,7.121-.131,23.165-.057,36.056v.088c.031,5.221.057,9.73.057,12.856a19.23,19.23,0,0,1-4.086.406c-16.2,0-44.412-16-57.914-37.406-4.887-7.749-8.21-19.475-9.876-34.852A222.73,222.73,0,0,1,162.99,857.3c.008-.622.014-1.07.01-1.3h.771c5.13,0,31.3-.006,56.6-.013h.28L271,855.975h16.173a135.887,135.887,0,0,1,14.315,1.155c5.036.641,10.071,1.506,14.965,2.571a153.493,153.493,0,0,1,17.565,4.9c14.1,4.891,25.918,11.552,35.123,19.8a71.464,71.464,0,0,1,13.651,16.4,70.124,70.124,0,0,1,8.441,21.736,111.815,111.815,0,0,1,2.516,22.216,82.168,82.168,0,0,1-1.939,18.617,68.575,68.575,0,0,1-13.271,27.777,77.691,77.691,0,0,1-9.347,9.832,93.818,93.818,0,0,1-9.831,7.574,150.009,150.009,0,0,1-17.144,9.715l-.037.018q-1.029.517-1.937.977c-5.771,2.936-14.028,5.586-23.251,7.465a144.076,144.076,0,0,1-27.81,2.918A73.027,73.027,0,0,1,270.524,1027.58Z"/></g></svg>