<?xml version="1.0" encoding="UTF-8" standalone="no"?>
<!DOCTYPE svg PUBLIC "-//W3C//DTD SVG 1.1//EN" "http://www.w3.org/Graphics/SVG/1.1/DTD/svg11.dtd">
<svg width="100%" height="100%" viewBox="0 0 3248 748" version="1.1" xmlns="http://www.w3.org/2000/svg" xmlns:xlink="http://www.w3.org/1999/xlink" xml:space="preserve" xmlns:serif="http://www.serif.com/" style="fill-rule:evenodd;clip-rule:evenodd;stroke-linejoin:round;stroke-miterlimit:2;">
    <g id="logo" transform="matrix(1.707031,0,0,1.707031,-144.332732,-405.123558)">
        <path d="M399.945,466.501C400.029,462.982 399.821,462.994 400.032,459.467C400.182,456.944 400.955,457.104 403.497,457.086C404.459,457.079 413.352,457.014 415.526,457.082C415.734,457.088 417.385,457.14 417.755,458.419C417.863,458.791 417.873,461.252 417.874,461.499C417.884,463.821 417.986,487.748 417.902,490.522C417.896,490.731 417.846,492.42 416.599,492.789C415.381,493.149 401.734,492.6 400.317,493.129C398.85,493.677 399.234,495.415 399.185,503.497C399.152,509.017 399.79,511.02 396.494,511.04C385.653,511.105 382.387,510.546 381.53,511.526C380.431,512.782 381.756,527.419 380.606,528.591C379.871,529.339 379.727,529.417 367.511,529.171C364.258,529.106 362.861,528.26 362.761,531.51C362.705,533.324 362.755,574.741 362.76,578.5C362.765,582.974 362.322,584.331 365.501,584.363C379.995,584.509 380.247,584.551 380.672,585.372C381.854,587.652 380.29,600.917 381.659,602.349C382.283,603.002 384.27,602.949 384.503,602.943C384.522,602.942 387.371,602.919 390.499,602.924C411.02,602.952 410.995,603.038 431.502,603.063C450.879,603.086 450.881,603.178 452.555,602.987C455.426,602.658 454.692,601.246 454.688,595.5C454.682,586.832 454.469,585.403 455.685,584.908C456.913,584.407 470.107,584.603 470.502,584.593C473.888,584.509 473.006,581.495 472.993,579.497C472.921,567.699 472.968,567.491 473.818,566.954C475.054,566.175 487.524,566.879 489.458,566.362C491.255,565.881 490.916,563.204 490.881,559.491C490.794,550.348 490.642,549.388 491.66,548.747C493.221,547.765 506.899,548.589 508.705,547.919C510.262,547.342 509.851,543.933 509.851,543.499C509.829,515.048 509.781,515.05 509.879,513.531C510.069,510.594 512.224,511.464 524.5,511.43C525.902,511.426 527.571,511.55 527.884,509.563C527.935,509.238 527.906,509.243 527.864,506.495C527.672,493.997 527.707,432.98 527.679,429.5C527.466,403.435 528,403.107 526.852,402.089C525.381,400.784 512.307,402.297 510.653,401.258C509.176,400.331 509.947,399.83 509.842,383.498C509.739,367.456 510.018,366.475 509.325,365.644C508.096,364.17 497.971,365.432 493.444,364.907C490.361,364.549 491.186,362.288 491.167,356.502C491.138,347.726 491.374,347.341 490.382,346.672C489.36,345.982 483.208,346.794 476.499,346.522C474.179,346.428 473.309,346.121 472.979,344.452C472.876,343.933 473.097,331.549 472.937,330.43C472.565,327.829 470.363,328.566 464.501,328.605C462.498,328.618 462.518,328.607 460.501,328.623C456.388,328.655 454.595,329.611 454.611,325.5C454.661,312.057 454.727,311.478 454.157,310.795C452.759,309.12 437.898,311.17 436.479,309.517C435.514,308.392 436.209,294.745 435.919,293.397C435.461,291.277 432.611,291.906 429.503,291.925C419.734,291.982 419.019,292.093 418.584,290.475C418.296,289.401 418.336,280.279 418.6,276.507C418.827,273.271 420.851,274.008 424.499,274.004C445.68,273.979 445.661,273.985 447.501,273.941C448.122,273.926 477.035,273.918 477.498,273.93C489.036,274.226 489.376,273.664 490.161,274.757C490.594,275.36 490.597,277.277 490.597,277.5C490.617,290.162 490.273,290.783 491.305,291.729C492.336,292.675 498.483,292.276 506.501,292.317C525.468,292.414 525.57,292.35 526.182,292.863C527.785,294.203 525.782,308.754 527.733,310.194C529.05,311.166 539.706,310.233 543.467,310.73C545.87,311.047 545.385,312.628 545.38,321.5C545.377,326.951 544.789,328.697 548.497,328.752C562.132,328.951 562.515,328.357 563.377,329.582C563.66,329.984 563.9,330.021 563.815,342.505C563.792,345.778 563.249,347.044 566.512,347.119C580.328,347.437 581.262,346.365 582.008,348.598C582.06,348.755 581.958,362.802 581.995,364.5C582.323,379.852 581.52,382.225 582.673,383.316C584.099,384.665 597.866,383.529 599.638,384.241C600.784,384.702 600.603,385.454 600.658,392.5C600.896,422.861 600.577,422.859 600.606,425.498C600.771,440.395 600.497,440.378 600.599,451.499C600.642,456.139 600.862,480.11 600.641,509.501C600.507,527.484 601.386,528.283 599.388,529.052C598.829,529.267 586.616,529.135 585.505,529.123C581.498,529.08 582.028,530.625 582.039,534.502C582.045,536.823 582.103,558.397 581.982,563.521C581.942,565.22 582.064,565.585 580.432,566.053C579.952,566.191 566.66,565.686 565.359,566.101C563.112,566.816 564.203,567.774 563.928,581.517C563.861,584.886 561.652,583.922 557.5,584.062C555.027,584.145 546.831,583.374 545.912,584.793C544.857,586.423 545.947,599.969 545.173,601.299C544.513,602.433 542.29,602.107 537.501,602.102C528.96,602.091 527.631,601.745 526.926,603.618C526.819,603.902 526.809,606.269 526.808,606.5C526.761,617.582 526.877,617.571 526.823,618.532C526.675,621.167 524.111,620.523 521.5,620.525C484.698,620.542 484.7,620.465 481.5,620.514C474.9,620.615 473.355,620.367 472.554,621.538C471.674,622.824 472.232,634.04 472.085,636.48C471.929,639.084 471.114,638.898 468.501,638.898C317.612,638.865 317.617,638.909 304.497,638.852C283.027,638.759 282.675,639.318 281.852,638.217C281.29,637.466 281.472,637.36 281.475,626.5C281.471,595.167 281.467,563.833 281.463,532.5C281.539,513.224 281.173,513.014 282.072,512.088C283.27,510.853 283.615,511.451 330.5,511.422C343.134,511.414 344.097,511.513 344.58,510.555C345.416,508.893 344.405,496.373 345.17,494.349C345.831,492.604 349.297,493.059 351.503,493.066C375.612,493.147 377.282,493.079 379.522,492.989C382.123,492.884 382.021,492.088 381.941,489.491C381.892,487.932 381.984,476.902 382.142,476.367C382.636,474.695 386.248,474.987 386.501,474.995C391.02,475.136 391.005,475.048 395.51,474.985C399.017,474.935 400.121,475 400.034,471.493C399.971,468.991 399.961,469.01 399.945,466.501Z" style="fill:rgb(1,1,1);"/>
        <path d="M279.5,273.931C293.569,273.929 323.231,273.96 323.494,273.956C323.549,273.955 326.256,273.69 326.347,276.508C326.555,283.015 326.127,283.005 326.434,289.503C326.598,292.969 328.275,292.318 335.501,292.395C345.811,292.506 360.019,292.137 361.444,292.632C363.233,293.252 362.679,295.792 362.754,307.497C362.776,310.956 364.042,310.546 367.499,310.597C375.27,310.712 379.946,310.162 380.615,311.414C381.297,312.691 381.031,312.794 380.989,337.5C380.981,342.114 381.044,342.097 381.042,342.496C381.032,344.837 380.464,346.946 383.511,347.11C384.55,347.166 384.543,346.909 396.509,347.161C399.094,347.215 399.144,347.902 399.145,350.501C399.159,366.501 399.172,382.5 399.185,398.5C399.187,400.786 399,401.481 396.5,401.493C382.279,401.563 381.859,401.269 381.342,402.405C380.647,403.933 381.155,428.554 381.064,432.501C380.973,436.398 381.391,437.76 378.512,437.833C374.847,437.926 364.406,437.696 363.703,437.969C362.493,438.44 362.762,439.219 362.762,452.501C362.762,455.298 362.692,456.128 359.496,456.145C344.494,456.223 344.509,456.186 329.501,456.144C325.518,456.133 326.435,458.048 326.369,465.498C326.302,472.889 327.048,474.53 323.501,474.567C317.581,474.629 317.586,474.286 249.5,474.473C237.902,474.505 236.044,475.189 235.849,472.467C235.836,472.292 235.895,458.692 235.932,458.566C236.372,457.064 237.194,457.104 240.498,456.998C241.298,456.972 241.288,457.273 250.497,457.005C254.137,456.899 253.891,455.845 253.966,453.498C254.12,448.699 253.61,440.365 254.424,439.447C255.313,438.445 255.567,438.916 267.501,438.544C284.802,438.006 290.206,439.958 290.748,436.538C290.759,436.471 290.653,426.727 290.814,422.519C290.895,420.393 291.828,420.111 293.497,420.105C299.687,420.082 307.157,420.703 308.299,419.334C309.012,418.479 308.737,416.997 308.752,406.501C308.753,406.268 308.756,403.816 308.843,403.584C309.437,401.993 309.784,402.182 311.488,402.149C313.473,402.11 325.109,402.177 325.447,402.099C327.237,401.689 327.221,401.327 327.231,399.497C327.254,395.498 327.375,374.219 327.194,349.503C327.166,345.737 325.496,346.618 320.499,346.577C313.957,346.524 309.945,346.944 309.284,345.669C308.739,344.621 308.897,344.555 308.818,335.497C308.774,330.404 309.549,328.259 305.497,328.393C304.388,328.43 292.593,328.821 291.633,328.266C290.851,327.814 290.8,326.635 290.793,326.477C290.74,325.265 290.9,312.228 290.663,311.446C290.168,309.812 289.501,310.142 273.5,310.132C223.793,310.103 223.811,310.058 219.491,310.122C218.375,310.138 217.061,310.142 216.928,312.512C216.774,315.233 217.32,325.966 216.528,327.518C215.549,329.436 205.89,328.194 201.496,328.35C198.081,328.471 198.738,330.476 198.727,335.501C198.618,381.556 198.852,381.675 198.338,382.382C197.635,383.346 197.347,383.097 177.499,383.141C176.46,383.143 164.76,383.169 164.518,383.159C162.414,383.069 162.139,382.002 162.107,380.509C162.066,378.524 162.168,366.652 162.142,366.552C161.693,364.8 161.322,364.859 159.504,364.863C146.727,364.894 144.317,365.953 144.198,362.511C144.171,361.741 144.195,337.661 144.197,335.5C144.201,332.205 144.529,329.435 143.372,328.711C142.634,328.25 142.559,328.388 132.5,328.505C128.086,328.557 126.042,329.183 125.895,325.494C125.862,324.651 125.749,277.958 125.861,276.532C126.121,273.229 129.382,274.185 135.498,274.002C138.029,273.926 277.129,274.014 279.5,273.931Z" style="fill:rgb(1,1,1);"/>
        <path d="M201.499,638.905C190.179,638.81 129.177,638.888 128.483,638.869C125.706,638.79 125.844,637.236 125.835,635.5C125.677,606.049 125.791,562.821 125.807,556.501C125.978,491.486 125.626,491.51 125.815,426.501C125.828,422.041 125.028,420.267 129.493,420.175C130.603,420.152 186.673,420.13 190.504,420.147C203.322,420.206 204.002,419.828 204.512,421.496C204.925,422.843 204.836,464.247 204.848,569.5C204.848,574.862 204.855,636.018 204.824,636.522C204.646,639.37 202.913,638.812 201.499,638.905Z" style="fill:rgb(1,1,1);"/>
        <path d="M582.965,617.499C582.849,604.399 582.737,603.572 584.412,603.16C584.629,603.106 598.507,602.9 599.582,603.336C600.958,603.894 600.774,607.379 600.75,610.505C600.566,634.436 600.84,634.435 600.75,636.514C600.634,639.211 598.615,638.911 596.498,638.902C576.75,638.823 567.226,639.011 566.418,638.807C564.466,638.312 564.946,634.535 564.946,634.497C564.9,625.359 564.787,622.434 565.662,621.694C566.871,620.671 576.431,621.48 580.475,621.145C583.649,620.881 582.921,618.563 582.965,617.499Z" style="fill:rgb(1,2,1);"/>
    </g>
    <g transform="matrix(1,0,0,1,796.831209,-1102.134829)">
        <g transform="matrix(408.333333,0,0,408.333333,2430.279338,1787.660859)">
        </g>
        <text x="214.663px" y="1787.661px" style="font-family:'Tiny5-Regular', 'Tiny5';font-size:408.333px;">W<tspan x="538.471px 811.238px 1084.004px 1356.771px 1629.538px 1902.304px 2175.071px " y="1787.661px 1787.661px 1787.661px 1787.661px 1787.661px 1787.661px 1787.661px ">ORKSHOP</tspan></text>
    </g>
    <g transform="matrix(1,0,0,1,1625,375)">
        <g transform="matrix(1,0,0,1,-1625,-375)">
            <g id="logo1" serif:id="logo" transform="matrix(4.166667,0,0,4.166667,0,0)">
                <path d="M129.213,93.89C129.247,92.448 129.162,92.453 129.248,91.009C129.31,89.975 129.626,90.041 130.668,90.033C131.062,90.03 134.706,90.004 135.596,90.031C135.681,90.034 136.358,90.055 136.509,90.579C136.553,90.731 136.557,91.74 136.558,91.841C136.562,92.792 136.604,102.595 136.57,103.732C136.567,103.818 136.547,104.509 136.036,104.66C135.537,104.808 129.946,104.583 129.365,104.8C128.764,105.024 128.921,105.737 128.901,109.047C128.887,111.309 129.149,112.129 127.798,112.137C123.357,112.164 122.019,111.935 121.668,112.336C121.218,112.851 121.76,118.847 121.289,119.327C120.988,119.634 120.929,119.665 115.924,119.565C114.591,119.538 114.019,119.192 113.978,120.523C113.955,121.266 113.976,138.234 113.978,139.775C113.98,141.608 113.799,142.164 115.101,142.177C121.039,142.237 121.142,142.254 121.317,142.59C121.801,143.524 121.16,148.959 121.721,149.545C121.977,149.813 122.791,149.791 122.886,149.788C122.894,149.788 124.061,149.778 125.343,149.78C133.75,149.792 133.74,149.827 142.142,149.837C150.081,149.846 150.081,149.884 150.767,149.806C151.943,149.671 151.642,149.093 151.641,146.739C151.639,143.188 151.551,142.602 152.049,142.399C152.552,142.194 157.958,142.274 158.12,142.27C159.507,142.236 159.146,141.001 159.141,140.182C159.111,135.349 159.131,135.263 159.479,135.044C159.985,134.725 165.094,135.013 165.886,134.801C166.622,134.604 166.484,133.507 166.469,131.986C166.433,128.24 166.371,127.847 166.788,127.584C167.428,127.182 173.031,127.519 173.771,127.245C174.409,127.008 174.241,125.612 174.24,125.434C174.231,113.778 174.211,113.779 174.251,113.157C174.329,111.953 175.212,112.31 180.241,112.296C180.815,112.294 181.499,112.345 181.627,111.531C181.648,111.398 181.636,111.4 181.619,110.274C181.541,105.154 181.555,80.156 181.543,78.73C181.456,68.052 181.674,67.917 181.204,67.5C180.601,66.965 175.245,67.585 174.567,67.159C173.962,66.779 174.278,66.574 174.235,59.883C174.193,53.311 174.307,52.909 174.023,52.568C173.519,51.964 169.371,52.481 167.517,52.266C166.254,52.12 166.592,51.193 166.584,48.823C166.572,45.228 166.669,45.07 166.263,44.796C165.844,44.513 163.324,44.846 160.575,44.734C159.625,44.695 159.268,44.57 159.133,43.886C159.091,43.673 159.182,38.6 159.116,38.141C158.964,37.075 158.061,37.377 155.66,37.393C154.839,37.398 154.848,37.394 154.021,37.4C152.336,37.413 151.602,37.805 151.608,36.121C151.629,30.613 151.656,30.376 151.422,30.097C150.849,29.411 144.761,30.25 144.179,29.573C143.784,29.112 144.069,23.521 143.949,22.969C143.762,22.1 142.594,22.358 141.321,22.366C137.319,22.39 137.026,22.435 136.848,21.772C136.73,21.332 136.746,17.595 136.855,16.049C136.948,14.724 137.777,15.025 139.272,15.024C147.95,15.014 147.942,15.016 148.696,14.998C148.951,14.992 160.796,14.989 160.985,14.994C165.712,15.115 165.851,14.885 166.173,15.333C166.35,15.58 166.352,16.365 166.352,16.457C166.36,21.644 166.219,21.899 166.642,22.287C167.065,22.674 169.583,22.511 172.868,22.528C180.638,22.568 180.68,22.542 180.931,22.752C181.588,23.301 180.767,29.263 181.566,29.852C182.106,30.25 186.471,29.868 188.012,30.072C188.996,30.202 188.798,30.849 188.796,34.484C188.795,36.717 188.554,37.433 190.073,37.455C195.659,37.537 195.816,37.293 196.169,37.795C196.285,37.96 196.383,37.975 196.348,43.089C196.339,44.43 196.116,44.949 197.453,44.979C203.114,45.109 203.496,44.67 203.802,45.585C203.824,45.649 203.782,51.404 203.797,52.1C203.931,58.389 203.602,59.362 204.075,59.809C204.659,60.362 210.3,59.896 211.026,60.188C211.496,60.377 211.421,60.685 211.444,63.572C211.542,76.01 211.411,76.009 211.423,77.091C211.49,83.194 211.378,83.187 211.42,87.743C211.437,89.644 211.528,99.465 211.437,111.506C211.382,118.873 211.742,119.201 210.923,119.516C210.694,119.604 205.69,119.55 205.235,119.545C203.593,119.527 203.811,120.16 203.815,121.749C203.818,122.7 203.841,131.538 203.792,133.638C203.776,134.334 203.826,134.484 203.157,134.676C202.96,134.732 197.515,134.526 196.982,134.695C196.061,134.988 196.508,135.381 196.396,141.011C196.368,142.391 195.463,141.997 193.762,142.054C192.749,142.088 189.391,141.772 189.015,142.353C188.582,143.021 189.029,148.571 188.712,149.115C188.442,149.579 187.531,149.446 185.569,149.444C182.07,149.44 181.525,149.298 181.236,150.065C181.192,150.182 181.188,151.151 181.188,151.246C181.169,155.786 181.216,155.782 181.194,156.176C181.133,157.255 180.083,156.992 179.013,156.992C163.936,156.999 163.936,156.967 162.626,156.988C159.922,157.03 159.289,156.928 158.961,157.407C158.6,157.934 158.829,162.529 158.769,163.529C158.705,164.596 158.371,164.52 157.301,164.519C95.484,164.506 95.486,164.524 90.111,164.5C81.315,164.462 81.171,164.691 80.834,164.24C80.604,163.932 80.678,163.889 80.679,159.44C80.677,146.603 80.676,133.766 80.674,120.929C80.705,113.032 80.555,112.946 80.923,112.567C81.414,112.061 81.555,112.306 100.764,112.294C105.94,112.291 106.335,112.332 106.532,111.939C106.874,111.258 106.46,106.129 106.774,105.3C107.045,104.585 108.465,104.771 109.369,104.774C119.246,104.807 119.93,104.779 120.848,104.742C121.914,104.699 121.872,104.373 121.839,103.309C121.819,102.67 121.857,98.152 121.922,97.932C122.124,97.247 123.604,97.366 123.708,97.37C125.559,97.428 125.553,97.392 127.399,97.366C128.836,97.346 129.288,97.372 129.252,95.935C129.226,94.91 129.222,94.918 129.216,93.89L129.213,93.89Z" style="fill:rgb(1,1,1);"/>
                <path d="M79.868,14.996C85.632,14.995 97.784,15.008 97.892,15.006C97.914,15.006 99.024,14.897 99.061,16.052C99.146,18.718 98.971,18.714 99.097,21.376C99.164,22.796 99.851,22.529 102.812,22.561C107.036,22.606 112.857,22.455 113.441,22.658C114.174,22.912 113.947,23.953 113.977,28.748C113.986,30.165 114.505,29.997 115.921,30.018C119.105,30.065 121.021,29.84 121.294,30.353C121.574,30.876 121.465,30.918 121.447,41.04C121.444,42.93 121.469,42.923 121.469,43.087C121.465,44.046 121.232,44.91 122.481,44.977C122.906,45 122.904,44.895 127.806,44.998C128.865,45.02 128.885,45.302 128.886,46.366C128.891,52.921 128.897,59.476 128.902,66.03C128.903,66.967 128.826,67.251 127.802,67.256C121.976,67.285 121.804,67.164 121.592,67.63C121.307,68.256 121.515,78.343 121.478,79.96C121.441,81.557 121.612,82.114 120.433,82.144C118.932,82.182 114.654,82.088 114.366,82.2C113.871,82.393 113.98,82.712 113.981,88.153C113.981,89.299 113.952,89.639 112.643,89.646C106.497,89.678 106.503,89.663 100.354,89.646C98.722,89.641 99.098,90.426 99.071,93.478C99.044,96.506 99.349,97.178 97.896,97.193C95.471,97.218 95.472,97.078 67.579,97.154C62.828,97.167 62.066,97.447 61.986,96.332C61.981,96.26 62.005,90.689 62.02,90.637C62.2,90.022 62.537,90.038 63.891,89.995C64.219,89.985 64.215,90.108 67.987,89.998C69.478,89.955 69.378,89.523 69.408,88.561C69.471,86.595 69.262,83.18 69.596,82.804C69.96,82.394 70.064,82.586 74.953,82.434C82.041,82.213 84.255,83.013 84.477,81.612C84.481,81.585 84.438,77.593 84.504,75.869C84.537,74.998 84.919,74.882 85.603,74.88C88.139,74.871 91.199,75.125 91.667,74.564C91.959,74.214 91.846,73.606 91.853,69.307C91.853,69.211 91.855,68.207 91.89,68.112C92.133,67.46 92.276,67.538 92.974,67.524C93.787,67.508 98.554,67.535 98.693,67.504C99.426,67.336 99.42,67.188 99.424,66.438C99.433,64.799 99.483,56.082 99.409,45.956C99.398,44.413 98.713,44.774 96.666,44.757C93.986,44.735 92.342,44.907 92.071,44.385C91.848,43.955 91.913,43.928 91.88,40.217C91.862,38.131 92.18,37.252 90.519,37.307C90.065,37.322 85.233,37.482 84.839,37.255C84.519,37.07 84.498,36.587 84.495,36.522C84.473,36.025 84.539,30.684 84.442,30.364C84.239,29.694 83.966,29.829 77.411,29.826C57.047,29.814 57.054,29.796 55.284,29.822C54.827,29.829 54.289,29.83 54.234,30.801C54.171,31.916 54.395,36.313 54.07,36.949C53.669,37.735 49.712,37.226 47.912,37.29C46.513,37.34 46.782,38.161 46.777,40.22C46.733,59.088 46.829,59.137 46.618,59.427C46.33,59.822 46.212,59.72 38.081,59.738C37.656,59.739 32.862,59.75 32.763,59.745C31.901,59.708 31.788,59.271 31.775,58.659C31.758,57.846 31.8,52.982 31.789,52.941C31.605,52.223 31.453,52.247 30.708,52.249C25.473,52.262 24.486,52.696 24.437,51.286C24.426,50.97 24.436,41.105 24.437,40.22C24.438,38.87 24.573,37.735 24.099,37.439C23.797,37.25 23.766,37.307 19.645,37.355C17.837,37.376 16.999,37.633 16.939,36.121C16.925,35.776 16.879,16.646 16.925,16.062C17.032,14.709 18.367,15.101 20.873,15.025C21.91,14.994 78.898,15.03 79.869,14.996L79.868,14.996Z" style="fill:rgb(1,1,1);"/>
                <path d="M47.912,164.522C43.274,164.483 18.283,164.515 17.998,164.507C16.86,164.475 16.917,163.838 16.913,163.127C16.848,151.061 16.895,133.351 16.902,130.762C16.972,104.126 16.828,104.136 16.905,77.502C16.91,75.675 16.583,74.948 18.412,74.91C18.867,74.901 41.838,74.892 43.407,74.899C48.658,74.923 48.937,74.768 49.146,75.451C49.315,76.003 49.279,92.966 49.283,136.086C49.283,138.283 49.286,163.338 49.273,163.544C49.2,164.711 48.49,164.482 47.911,164.52L47.912,164.522Z" style="fill:rgb(1,1,1);"/>
                <path d="M204.194,155.752C204.147,150.385 204.101,150.046 204.787,149.877C204.876,149.855 210.561,149.771 211.002,149.949C211.566,150.178 211.49,151.605 211.481,152.886C211.406,162.69 211.518,162.69 211.481,163.542C211.433,164.647 210.606,164.524 209.739,164.52C201.649,164.488 197.747,164.565 197.416,164.481C196.616,164.278 196.813,162.731 196.813,162.715C196.794,158.971 196.748,157.773 197.106,157.47C197.601,157.051 201.518,157.383 203.175,157.245C204.475,157.137 204.177,156.188 204.195,155.752L204.194,155.752Z" style="fill:rgb(1,2,1);"/>
            </g>
            <g transform="matrix(4.166667,0,0,4.166667,0,0)">
                <g transform="matrix(1,0,0,1,242.759,164.526)">
                    <text x="0px" y="0px" style="font-family:'Tiny5-Regular', 'Tiny5';font-size:98px;">W</text>
                </g>
                <g transform="matrix(1,0,0,1,320.473,164.526)">
                    <text x="0px" y="0px" style="font-family:'Tiny5-Regular', 'Tiny5';font-size:98px;">O<tspan x="65.464px 130.928px 196.392px 261.856px 327.32px 392.784px " y="0px 0px 0px 0px 0px 0px ">RKSHOP</tspan></text>
                </g>
            </g>
        </g>
    </g>
</svg>
