<?xml version="1.0" encoding="UTF-8" standalone="no"?><!DOCTYPE svg PUBLIC "-//W3C//DTD SVG 1.1//EN" "http://www.w3.org/Graphics/SVG/1.1/DTD/svg11.dtd"><svg width="100%" height="100%" viewBox="0 0 780 180" version="1.1" xmlns="http://www.w3.org/2000/svg" xmlns:xlink="http://www.w3.org/1999/xlink" xml:space="preserve" xmlns:serif="http://www.serif.com/" style="fill-rule:evenodd;clip-rule:evenodd;stroke-linejoin:round;stroke-miterlimit:2;"><g id="logo"><path d="M129.213,93.89c0.034,-1.442 -0.051,-1.437 0.035,-2.881c0.062,-1.034 0.378,-0.968 1.42,-0.976c0.394,-0.003 4.038,-0.029 4.928,-0.002c0.085,0.003 0.762,0.024 0.913,0.548c0.044,0.152 0.048,1.161 0.049,1.262c0.004,0.951 0.046,10.754 0.012,11.891c-0.003,0.086 -0.023,0.777 -0.534,0.928c-0.499,0.148 -6.09,-0.077 -6.671,0.14c-0.601,0.224 -0.444,0.937 -0.464,4.247c-0.014,2.262 0.248,3.082 -1.103,3.09c-4.441,0.027 -5.779,-0.202 -6.13,0.199c-0.45,0.515 0.092,6.511 -0.379,6.991c-0.301,0.307 -0.36,0.338 -5.365,0.238c-1.333,-0.027 -1.905,-0.373 -1.946,0.958c-0.023,0.743 -0.002,17.711 -0,19.252c0.002,1.833 -0.179,2.389 1.123,2.402c5.938,0.06 6.041,0.077 6.216,0.413c0.484,0.934 -0.157,6.369 0.404,6.955c0.256,0.268 1.07,0.246 1.165,0.243c0.008,-0 1.175,-0.01 2.457,-0.008c8.407,0.012 8.397,0.047 16.799,0.057c7.939,0.009 7.939,0.047 8.625,-0.031c1.176,-0.135 0.875,-0.713 0.874,-3.067c-0.002,-3.551 -0.09,-4.137 0.408,-4.34c0.503,-0.205 5.909,-0.125 6.071,-0.129c1.387,-0.034 1.026,-1.269 1.021,-2.088c-0.03,-4.833 -0.01,-4.919 0.338,-5.138c0.506,-0.319 5.615,-0.031 6.407,-0.243c0.736,-0.197 0.598,-1.294 0.583,-2.815c-0.036,-3.746 -0.098,-4.139 0.319,-4.402c0.64,-0.402 6.243,-0.065 6.983,-0.339c0.638,-0.237 0.47,-1.633 0.469,-1.811c-0.009,-11.656 -0.029,-11.655 0.011,-12.277c0.078,-1.204 0.961,-0.847 5.99,-0.861c0.574,-0.002 1.258,0.049 1.386,-0.765c0.021,-0.133 0.009,-0.131 -0.008,-1.257c-0.078,-5.12 -0.064,-30.118 -0.076,-31.544c-0.087,-10.678 0.131,-10.813 -0.339,-11.23c-0.603,-0.535 -5.959,0.085 -6.637,-0.341c-0.605,-0.38 -0.289,-0.585 -0.332,-7.276c-0.042,-6.572 0.072,-6.974 -0.212,-7.315c-0.504,-0.604 -4.652,-0.087 -6.506,-0.302c-1.263,-0.146 -0.925,-1.073 -0.933,-3.443c-0.012,-3.595 0.085,-3.753 -0.321,-4.027c-0.419,-0.283 -2.939,0.05 -5.688,-0.062c-0.95,-0.039 -1.307,-0.164 -1.442,-0.848c-0.042,-0.213 0.049,-5.286 -0.017,-5.745c-0.152,-1.066 -1.055,-0.764 -3.456,-0.748c-0.821,0.005 -0.812,0.001 -1.639,0.007c-1.685,0.013 -2.419,0.405 -2.413,-1.279c0.021,-5.508 0.048,-5.745 -0.186,-6.024c-0.573,-0.686 -6.661,0.153 -7.243,-0.524c-0.395,-0.461 -0.11,-6.052 -0.23,-6.604c-0.187,-0.869 -1.355,-0.611 -2.628,-0.603c-4.002,0.024 -4.295,0.069 -4.473,-0.594c-0.118,-0.44 -0.102,-4.177 0.007,-5.723c0.093,-1.325 0.922,-1.024 2.417,-1.025c8.678,-0.01 8.67,-0.008 9.424,-0.026c0.255,-0.006 12.1,-0.009 12.289,-0.004c4.727,0.121 4.866,-0.109 5.188,0.339c0.177,0.247 0.179,1.032 0.179,1.124c0.008,5.187 -0.133,5.442 0.29,5.83c0.423,0.387 2.941,0.224 6.226,0.241c7.77,0.04 7.812,0.014 8.063,0.224c0.657,0.549 -0.164,6.511 0.635,7.1c0.54,0.398 4.905,0.016 6.446,0.22c0.984,0.13 0.786,0.777 0.784,4.412c-0.001,2.233 -0.242,2.949 1.277,2.971c5.586,0.082 5.743,-0.162 6.096,0.34c0.116,0.165 0.214,0.18 0.179,5.294c-0.009,1.341 -0.232,1.86 1.105,1.89c5.661,0.13 6.043,-0.309 6.349,0.606c0.022,0.064 -0.02,5.819 -0.005,6.515c0.134,6.289 -0.195,7.262 0.278,7.709c0.584,0.553 6.225,0.087 6.951,0.379c0.47,0.189 0.395,0.497 0.418,3.384c0.098,12.438 -0.033,12.437 -0.021,13.519c0.067,6.103 -0.045,6.096 -0.003,10.652c0.017,1.901 0.108,11.722 0.017,23.763c-0.055,7.367 0.305,7.695 -0.514,8.01c-0.229,0.088 -5.233,0.034 -5.688,0.029c-1.642,-0.018 -1.424,0.615 -1.42,2.204c0.003,0.951 0.026,9.789 -0.023,11.889c-0.016,0.696 0.034,0.846 -0.635,1.038c-0.197,0.056 -5.642,-0.15 -6.175,0.019c-0.921,0.293 -0.474,0.686 -0.586,6.316c-0.028,1.38 -0.933,0.986 -2.634,1.043c-1.013,0.034 -4.371,-0.282 -4.747,0.299c-0.433,0.668 0.014,6.218 -0.303,6.762c-0.27,0.464 -1.181,0.331 -3.143,0.329c-3.499,-0.004 -4.044,-0.146 -4.333,0.621c-0.044,0.117 -0.048,1.086 -0.048,1.181c-0.019,4.54 0.028,4.536 0.006,4.93c-0.061,1.079 -1.111,0.816 -2.181,0.816c-15.077,0.007 -15.077,-0.025 -16.387,-0.004c-2.704,0.042 -3.337,-0.06 -3.665,0.419c-0.361,0.527 -0.132,5.122 -0.192,6.122c-0.064,1.067 -0.398,0.991 -1.468,0.99c-61.817,-0.013 -61.815,0.005 -67.19,-0.019c-8.796,-0.038 -8.94,0.191 -9.277,-0.26c-0.23,-0.308 -0.156,-0.351 -0.155,-4.8c-0.002,-12.837 -0.003,-25.674 -0.005,-38.511c0.031,-7.897 -0.119,-7.983 0.249,-8.362c0.491,-0.506 0.632,-0.261 19.841,-0.273c5.176,-0.003 5.571,0.038 5.768,-0.355c0.342,-0.681 -0.072,-5.81 0.242,-6.639c0.271,-0.715 1.691,-0.529 2.595,-0.526c9.877,0.033 10.561,0.005 11.479,-0.032c1.066,-0.043 1.024,-0.369 0.991,-1.433c-0.02,-0.639 0.018,-5.157 0.083,-5.377c0.202,-0.685 1.682,-0.566 1.786,-0.562c1.851,0.058 1.845,0.022 3.691,-0.004c1.437,-0.02 1.889,0.006 1.853,-1.431c-0.026,-1.025 -0.03,-1.017 -0.036,-2.045Z" style="fill:#010101;"/><path d="M79.868,14.996c5.764,-0.001 17.916,0.012 18.024,0.01c0.022,-0 1.132,-0.109 1.169,1.046c0.085,2.666 -0.09,2.662 0.036,5.324c0.067,1.42 0.754,1.153 3.715,1.185c4.224,0.045 10.045,-0.106 10.629,0.097c0.733,0.254 0.506,1.295 0.536,6.09c0.009,1.417 0.528,1.249 1.944,1.27c3.184,0.047 5.1,-0.178 5.373,0.335c0.28,0.523 0.171,0.565 0.153,10.687c-0.003,1.89 0.022,1.883 0.022,2.047c-0.004,0.959 -0.237,1.823 1.012,1.89c0.425,0.023 0.423,-0.082 5.325,0.021c1.059,0.022 1.079,0.304 1.08,1.368c0.005,6.555 0.011,13.11 0.016,19.664c0.001,0.937 -0.076,1.221 -1.1,1.226c-5.826,0.029 -5.998,-0.092 -6.21,0.374c-0.285,0.626 -0.077,10.713 -0.114,12.33c-0.037,1.597 0.134,2.154 -1.045,2.184c-1.501,0.038 -5.779,-0.056 -6.067,0.056c-0.495,0.193 -0.386,0.512 -0.385,5.953c0,1.146 -0.029,1.486 -1.338,1.493c-6.146,0.032 -6.14,0.017 -12.289,-0c-1.632,-0.005 -1.256,0.78 -1.283,3.832c-0.027,3.028 0.278,3.7 -1.175,3.715c-2.425,0.025 -2.424,-0.115 -30.317,-0.039c-4.751,0.013 -5.513,0.293 -5.593,-0.822c-0.005,-0.072 0.019,-5.643 0.034,-5.695c0.18,-0.615 0.517,-0.599 1.871,-0.642c0.328,-0.01 0.324,0.113 4.096,0.003c1.491,-0.043 1.391,-0.475 1.421,-1.437c0.063,-1.966 -0.146,-5.381 0.188,-5.757c0.364,-0.41 0.468,-0.218 5.357,-0.37c7.088,-0.221 9.302,0.579 9.524,-0.822c0.004,-0.027 -0.039,-4.019 0.027,-5.743c0.033,-0.871 0.415,-0.987 1.099,-0.989c2.536,-0.009 5.596,0.245 6.064,-0.316c0.292,-0.35 0.179,-0.958 0.186,-5.257c0,-0.096 0.002,-1.1 0.037,-1.195c0.243,-0.652 0.386,-0.574 1.084,-0.588c0.813,-0.016 5.58,0.011 5.719,-0.02c0.733,-0.168 0.727,-0.316 0.731,-1.066c0.009,-1.639 0.059,-10.356 -0.015,-20.482c-0.011,-1.543 -0.696,-1.182 -2.743,-1.199c-2.68,-0.022 -4.324,0.15 -4.595,-0.372c-0.223,-0.43 -0.158,-0.457 -0.191,-4.168c-0.018,-2.086 0.3,-2.965 -1.361,-2.91c-0.454,0.015 -5.286,0.175 -5.68,-0.052c-0.32,-0.185 -0.341,-0.668 -0.344,-0.733c-0.022,-0.497 0.044,-5.838 -0.053,-6.158c-0.203,-0.67 -0.476,-0.535 -7.031,-0.538c-20.364,-0.012 -20.357,-0.03 -22.127,-0.004c-0.457,0.007 -0.995,0.008 -1.05,0.979c-0.063,1.115 0.161,5.512 -0.164,6.148c-0.401,0.786 -4.358,0.277 -6.158,0.341c-1.399,0.05 -1.13,0.871 -1.135,2.93c-0.044,18.868 0.052,18.917 -0.159,19.207c-0.288,0.395 -0.406,0.293 -8.537,0.311c-0.425,0.001 -5.219,0.012 -5.318,0.007c-0.862,-0.037 -0.975,-0.474 -0.988,-1.086c-0.017,-0.813 0.025,-5.677 0.014,-5.718c-0.184,-0.718 -0.336,-0.694 -1.081,-0.692c-5.235,0.013 -6.222,0.447 -6.271,-0.963c-0.011,-0.316 -0.001,-10.181 -0,-11.066c0.001,-1.35 0.136,-2.485 -0.338,-2.781c-0.302,-0.189 -0.333,-0.132 -4.454,-0.084c-1.808,0.021 -2.646,0.278 -2.706,-1.234c-0.014,-0.345 -0.06,-19.475 -0.014,-20.059c0.107,-1.353 1.442,-0.961 3.948,-1.037c1.037,-0.031 58.025,0.005 58.996,-0.029Z" style="fill:#010101;"/><path d="M47.912,164.522c-4.638,-0.039 -29.629,-0.007 -29.914,-0.015c-1.138,-0.032 -1.081,-0.669 -1.085,-1.38c-0.065,-12.066 -0.018,-29.776 -0.011,-32.365c0.07,-26.636 -0.074,-26.626 0.003,-53.26c0.005,-1.827 -0.322,-2.554 1.507,-2.592c0.455,-0.009 23.426,-0.018 24.995,-0.011c5.251,0.024 5.53,-0.131 5.739,0.552c0.169,0.552 0.133,17.515 0.137,60.635c0,2.197 0.003,27.252 -0.01,27.458c-0.073,1.167 -0.783,0.938 -1.362,0.976Z" style="fill:#010101;"/><path d="M204.194,155.752c-0.047,-5.367 -0.093,-5.706 0.593,-5.875c0.089,-0.022 5.774,-0.106 6.215,0.072c0.564,0.229 0.488,1.656 0.479,2.937c-0.075,9.804 0.037,9.804 0,10.656c-0.048,1.105 -0.875,0.982 -1.742,0.978c-8.09,-0.032 -11.992,0.045 -12.323,-0.039c-0.8,-0.203 -0.603,-1.75 -0.603,-1.766c-0.019,-3.744 -0.065,-4.942 0.293,-5.245c0.495,-0.419 4.412,-0.087 6.069,-0.225c1.3,-0.108 1.002,-1.057 1.02,-1.493Z" style="fill:#010201;"/></g><g transform="matrix(98,0,0,98,774.506531,164.526247)"></g><text x="242.759px" y="164.526px" style="font-family:'Tiny5-Regular', 'Tiny5';font-size:98px;">W<tspan x="320.473px 385.937px 451.401px 516.865px 582.329px 647.793px 713.257px " y="164.526px 164.526px 164.526px 164.526px 164.526px 164.526px 164.526px ">ORKSHOP</tspan></text></svg>