<?xml version="1.0" encoding="UTF-8" standalone="no"?>
<!DOCTYPE svg PUBLIC "-//W3C//DTD SVG 1.1//EN" "http://www.w3.org/Graphics/SVG/1.1/DTD/svg11.dtd">
<svg width="100%" height="100%" viewBox="0 0 3174 748" version="1.1" xmlns="http://www.w3.org/2000/svg" xmlns:xlink="http://www.w3.org/1999/xlink" xml:space="preserve" xmlns:serif="http://www.serif.com/" style="fill-rule:evenodd;clip-rule:evenodd;stroke-linejoin:round;stroke-miterlimit:2;">
    <g id="logo" transform="matrix(1.707031,0,0,1.707031,-144.332732,-405.123558)">
        <path d="M399.945,466.501C400.029,462.982 399.821,462.994 400.032,459.467C400.182,456.944 400.955,457.104 403.497,457.086C404.459,457.079 413.352,457.014 415.526,457.082C415.734,457.088 417.385,457.14 417.755,458.419C417.863,458.791 417.873,461.252 417.874,461.499C417.884,463.821 417.986,487.748 417.902,490.522C417.896,490.731 417.846,492.42 416.599,492.789C415.381,493.149 401.734,492.6 400.317,493.129C398.85,493.677 399.234,495.415 399.185,503.497C399.152,509.017 399.79,511.02 396.494,511.04C385.653,511.105 382.387,510.546 381.53,511.526C380.431,512.782 381.756,527.419 380.606,528.591C379.871,529.339 379.727,529.417 367.511,529.171C364.258,529.106 362.861,528.26 362.761,531.51C362.705,533.324 362.755,574.741 362.76,578.5C362.765,582.974 362.322,584.331 365.501,584.363C379.995,584.509 380.247,584.551 380.672,585.372C381.854,587.652 380.29,600.917 381.659,602.349C382.283,603.002 384.27,602.949 384.503,602.943C384.522,602.942 387.371,602.919 390.499,602.924C411.02,602.952 410.995,603.038 431.502,603.063C450.879,603.086 450.881,603.178 452.555,602.987C455.426,602.658 454.692,601.246 454.688,595.5C454.682,586.832 454.469,585.403 455.685,584.908C456.913,584.407 470.107,584.603 470.502,584.593C473.888,584.509 473.006,581.495 472.993,579.497C472.921,567.699 472.968,567.491 473.818,566.954C475.054,566.175 487.524,566.879 489.458,566.362C491.255,565.881 490.916,563.204 490.881,559.491C490.794,550.348 490.642,549.388 491.66,548.747C493.221,547.765 506.899,548.589 508.705,547.919C510.262,547.342 509.851,543.933 509.851,543.499C509.829,515.048 509.781,515.05 509.879,513.531C510.069,510.594 512.224,511.464 524.5,511.43C525.902,511.426 527.571,511.55 527.884,509.563C527.935,509.238 527.906,509.243 527.864,506.495C527.672,493.997 527.707,432.98 527.679,429.5C527.466,403.435 528,403.107 526.852,402.089C525.381,400.784 512.307,402.297 510.653,401.258C509.176,400.331 509.947,399.83 509.842,383.498C509.739,367.456 510.018,366.475 509.325,365.644C508.096,364.17 497.971,365.432 493.444,364.907C490.361,364.549 491.186,362.288 491.167,356.502C491.138,347.726 491.374,347.341 490.382,346.672C489.36,345.982 483.208,346.794 476.499,346.522C474.179,346.428 473.309,346.121 472.979,344.452C472.876,343.933 473.097,331.549 472.937,330.43C472.565,327.829 470.363,328.566 464.501,328.605C462.498,328.618 462.518,328.607 460.501,328.623C456.388,328.655 454.595,329.611 454.611,325.5C454.661,312.057 454.727,311.478 454.157,310.795C452.759,309.12 437.898,311.17 436.479,309.517C435.514,308.392 436.209,294.745 435.919,293.397C435.461,291.277 432.611,291.906 429.503,291.925C419.734,291.982 419.019,292.093 418.584,290.475C418.296,289.401 418.336,280.279 418.6,276.507C418.827,273.271 420.851,274.008 424.499,274.004C445.68,273.979 445.661,273.985 447.501,273.941C448.122,273.926 477.035,273.918 477.498,273.93C489.036,274.226 489.376,273.664 490.161,274.757C490.594,275.36 490.597,277.277 490.597,277.5C490.617,290.162 490.273,290.783 491.305,291.729C492.336,292.675 498.483,292.276 506.501,292.317C525.468,292.414 525.57,292.35 526.182,292.863C527.785,294.203 525.782,308.754 527.733,310.194C529.05,311.166 539.706,310.233 543.467,310.73C545.87,311.047 545.385,312.628 545.38,321.5C545.377,326.951 544.789,328.697 548.497,328.752C562.132,328.951 562.515,328.357 563.377,329.582C563.66,329.984 563.9,330.021 563.815,342.505C563.792,345.778 563.249,347.044 566.512,347.119C580.328,347.437 581.262,346.365 582.008,348.598C582.06,348.755 581.958,362.802 581.995,364.5C582.323,379.852 581.52,382.225 582.673,383.316C584.099,384.665 597.866,383.529 599.638,384.241C600.784,384.702 600.603,385.454 600.658,392.5C600.896,422.861 600.577,422.859 600.606,425.498C600.771,440.395 600.497,440.378 600.599,451.499C600.642,456.139 600.862,480.11 600.641,509.501C600.507,527.484 601.386,528.283 599.388,529.052C598.829,529.267 586.616,529.135 585.505,529.123C581.498,529.08 582.028,530.625 582.039,534.502C582.045,536.823 582.103,558.397 581.982,563.521C581.942,565.22 582.064,565.585 580.432,566.053C579.952,566.191 566.66,565.686 565.359,566.101C563.112,566.816 564.203,567.774 563.928,581.517C563.861,584.886 561.652,583.922 557.5,584.062C555.027,584.145 546.831,583.374 545.912,584.793C544.857,586.423 545.947,599.969 545.173,601.299C544.513,602.433 542.29,602.107 537.501,602.102C528.96,602.091 527.631,601.745 526.926,603.618C526.819,603.902 526.809,606.269 526.808,606.5C526.761,617.582 526.877,617.571 526.823,618.532C526.675,621.167 524.111,620.523 521.5,620.525C484.698,620.542 484.7,620.465 481.5,620.514C474.9,620.615 473.355,620.367 472.554,621.538C471.674,622.824 472.232,634.04 472.085,636.48C471.929,639.084 471.114,638.898 468.501,638.898C317.612,638.865 317.617,638.909 304.497,638.852C283.027,638.759 282.675,639.318 281.852,638.217C281.29,637.466 281.472,637.36 281.475,626.5C281.471,595.167 281.467,563.833 281.463,532.5C281.539,513.224 281.173,513.014 282.072,512.088C283.27,510.853 283.615,511.451 330.5,511.422C343.134,511.414 344.097,511.513 344.58,510.555C345.416,508.893 344.405,496.373 345.17,494.349C345.831,492.604 349.297,493.059 351.503,493.066C375.612,493.147 377.282,493.079 379.522,492.989C382.123,492.884 382.021,492.088 381.941,489.491C381.892,487.932 381.984,476.902 382.142,476.367C382.636,474.695 386.248,474.987 386.501,474.995C391.02,475.136 391.005,475.048 395.51,474.985C399.017,474.935 400.121,475 400.034,471.493C399.971,468.991 399.961,469.01 399.945,466.501Z" style="fill:rgb(1,1,1);"/>
        <path d="M279.5,273.931C293.569,273.929 323.231,273.96 323.494,273.956C323.549,273.955 326.256,273.69 326.347,276.508C326.555,283.015 326.127,283.005 326.434,289.503C326.598,292.969 328.275,292.318 335.501,292.395C345.811,292.506 360.019,292.137 361.444,292.632C363.233,293.252 362.679,295.792 362.754,307.497C362.776,310.956 364.042,310.546 367.499,310.597C375.27,310.712 379.946,310.162 380.615,311.414C381.297,312.691 381.031,312.794 380.989,337.5C380.981,342.114 381.044,342.097 381.042,342.496C381.032,344.837 380.464,346.946 383.511,347.11C384.55,347.166 384.543,346.909 396.509,347.161C399.094,347.215 399.144,347.902 399.145,350.501C399.159,366.501 399.172,382.5 399.185,398.5C399.187,400.786 399,401.481 396.5,401.493C382.279,401.563 381.859,401.269 381.342,402.405C380.647,403.933 381.155,428.554 381.064,432.501C380.973,436.398 381.391,437.76 378.512,437.833C374.847,437.926 364.406,437.696 363.703,437.969C362.493,438.44 362.762,439.219 362.762,452.501C362.762,455.298 362.692,456.128 359.496,456.145C344.494,456.223 344.509,456.186 329.501,456.144C325.518,456.133 326.435,458.048 326.369,465.498C326.302,472.889 327.048,474.53 323.501,474.567C317.581,474.629 317.586,474.286 249.5,474.473C237.902,474.505 236.044,475.189 235.849,472.467C235.836,472.292 235.895,458.692 235.932,458.566C236.372,457.064 237.194,457.104 240.498,456.998C241.298,456.972 241.288,457.273 250.497,457.005C254.137,456.899 253.891,455.845 253.966,453.498C254.12,448.699 253.61,440.365 254.424,439.447C255.313,438.445 255.567,438.916 267.501,438.544C284.802,438.006 290.206,439.958 290.748,436.538C290.759,436.471 290.653,426.727 290.814,422.519C290.895,420.393 291.828,420.111 293.497,420.105C299.687,420.082 307.157,420.703 308.299,419.334C309.012,418.479 308.737,416.997 308.752,406.501C308.753,406.268 308.756,403.816 308.843,403.584C309.437,401.993 309.784,402.182 311.488,402.149C313.473,402.11 325.109,402.177 325.447,402.099C327.237,401.689 327.221,401.327 327.231,399.497C327.254,395.498 327.375,374.219 327.194,349.503C327.166,345.737 325.496,346.618 320.499,346.577C313.957,346.524 309.945,346.944 309.284,345.669C308.739,344.621 308.897,344.555 308.818,335.497C308.774,330.404 309.549,328.259 305.497,328.393C304.388,328.43 292.593,328.821 291.633,328.266C290.851,327.814 290.8,326.635 290.793,326.477C290.74,325.265 290.9,312.228 290.663,311.446C290.168,309.812 289.501,310.142 273.5,310.132C223.793,310.103 223.811,310.058 219.491,310.122C218.375,310.138 217.061,310.142 216.928,312.512C216.774,315.233 217.32,325.966 216.528,327.518C215.549,329.436 205.89,328.194 201.496,328.35C198.081,328.471 198.738,330.476 198.727,335.501C198.618,381.556 198.852,381.675 198.338,382.382C197.635,383.346 197.347,383.097 177.499,383.141C176.46,383.143 164.76,383.169 164.518,383.159C162.414,383.069 162.139,382.002 162.107,380.509C162.066,378.524 162.168,366.652 162.142,366.552C161.693,364.8 161.322,364.859 159.504,364.863C146.727,364.894 144.317,365.953 144.198,362.511C144.171,361.741 144.195,337.661 144.197,335.5C144.201,332.205 144.529,329.435 143.372,328.711C142.634,328.25 142.559,328.388 132.5,328.505C128.086,328.557 126.042,329.183 125.895,325.494C125.862,324.651 125.749,277.958 125.861,276.532C126.121,273.229 129.382,274.185 135.498,274.002C138.029,273.926 277.129,274.014 279.5,273.931Z" style="fill:rgb(1,1,1);"/>
        <path d="M201.499,638.905C190.179,638.81 129.177,638.888 128.483,638.869C125.706,638.79 125.844,637.236 125.835,635.5C125.677,606.049 125.791,562.821 125.807,556.501C125.978,491.486 125.626,491.51 125.815,426.501C125.828,422.041 125.028,420.267 129.493,420.175C130.603,420.152 186.673,420.13 190.504,420.147C203.322,420.206 204.002,419.828 204.512,421.496C204.925,422.843 204.836,464.247 204.848,569.5C204.848,574.862 204.855,636.018 204.824,636.522C204.646,639.37 202.913,638.812 201.499,638.905Z" style="fill:rgb(1,1,1);"/>
        <path d="M582.965,617.499C582.849,604.399 582.737,603.572 584.412,603.16C584.629,603.106 598.507,602.9 599.582,603.336C600.958,603.894 600.774,607.379 600.75,610.505C600.566,634.436 600.84,634.435 600.75,636.514C600.634,639.211 598.615,638.911 596.498,638.902C576.75,638.823 567.226,639.011 566.418,638.807C564.466,638.312 564.946,634.535 564.946,634.497C564.9,625.359 564.787,622.434 565.662,621.694C566.871,620.671 576.431,621.48 580.475,621.145C583.649,620.881 582.921,618.563 582.965,617.499Z" style="fill:rgb(1,2,1);"/>
    </g>
    <g transform="matrix(9.114362,0,0,9.114362,-8783.685649,-4037.651982)">
        <g transform="matrix(50,0,0,50,1306.630867,520.654117)">
        </g>
        <text x="1072.256px" y="520.654px" style="font-family:'VCROSDMonoRUS+VHSicons', 'VCR OSD Mono RUS+VHS icons', monospace;font-size:50px;">WORKSHOP</text>
    </g>
</svg>
