<?xml version="1.0" encoding="UTF-8" standalone="no"?><!DOCTYPE svg PUBLIC "-//W3C//DTD SVG 1.1//EN" "http://www.w3.org/Graphics/SVG/1.1/DTD/svg11.dtd"><svg width="100%" height="100%" viewBox="0 0 1137 1198" version="1.1" xmlns="http://www.w3.org/2000/svg" xmlns:xlink="http://www.w3.org/1999/xlink" xml:space="preserve" xmlns:serif="http://www.serif.com/" style="fill-rule:evenodd;clip-rule:evenodd;stroke-linejoin:round;stroke-miterlimit:2;"><g><path d="M1137.101,214.846l0,2.345c-0.182,0.527 -1.031,0.626 -1.212,1.153c-0.367,1.066 0.001,1.102 0.001,14.091c-0,53.94 -0,107.88 -0,161.82c-0.007,2.177 -0.099,2.184 -0.016,2.427c0.286,0.829 0.943,0.266 1.227,1.091l0,1.173c-0.728,0.101 -0.677,0.436 -2.921,0.405c-1.881,-0.026 -5.238,-0.019 -7.045,-0.02c-16.331,-0.005 -16.311,-0.023 -18.759,-0.01c-3.744,0.02 -2.899,2.593 -2.903,6.659c-0.069,62.695 0.14,235.791 -0.141,236.996c-0.461,1.972 -1.286,1.646 -15.72,1.645c-13.307,-0.001 -14.148,-0.353 -14.68,1.802c-0.02,0.082 -0.017,0.074 -0.017,44.501c-0,13.291 0.35,14.117 -1.782,14.673c-0.194,0.051 -24.774,0.012 -25.747,0.025c-3.111,0.04 -3.011,0.984 -3.01,4.064c0,14.462 0,28.924 0.001,43.386c-0.001,13.314 0.306,14.059 -1.549,14.497c-0.616,0.145 -26.655,0.018 -27.04,0.081c-2.423,0.395 -1.97,3.359 -1.97,11.22c0.005,48.086 -0.04,48.082 -0.056,48.159c-0.602,2.796 -6.117,1.194 -21.474,1.715c-8.174,0.278 -9.304,-0.954 -9.875,1.598c-0.121,0.54 -0.03,54.947 -0.056,57.567c-0.03,3.069 -1.087,2.811 -4.141,2.816c-24.798,0.041 -25.019,-0.204 -25.869,0.651c-0.697,0.7 -0.543,0.908 -0.556,73.938c-0.002,13.985 0.369,14.006 0.064,15.181c-0.554,2.132 -1.385,1.766 -14.68,1.771c-14.492,0.006 -15.31,-0.305 -15.756,1.676c-0.018,0.081 -0.15,18.486 -0.151,42.347c-0.001,16.739 0.369,17.58 -1.567,18.025c-0.571,0.131 -26.657,0.013 -27.035,0.076c-2.865,0.477 -1.505,1.944 -1.955,27.645c-0.066,3.781 -2.608,2.793 -6.304,2.878c-16.727,0.385 -22.47,-0.463 -23.539,0.519c-1.697,1.559 0.165,27.829 -1.173,29.344c-0.806,0.913 -1.076,0.477 -28.051,0.623c-3.09,0.017 -2.895,1.044 -2.894,4.145c0.009,25.911 0.103,26.114 -0.711,26.877c-0.594,0.558 -0.743,0.467 -43.303,0.478c-15.719,0.004 -16.379,0.243 -16.832,-1.407c-0.251,-0.914 -0.038,-27.838 -0.139,-28.231c-0.56,-2.174 -1.707,-1.781 -12.345,-1.781c-15.074,-0.001 -15.088,-0.35 -16.367,-0.066c-3.055,0.677 -1.582,2.165 -1.965,28.778c-0.05,3.468 -2.003,2.714 -7.466,2.712c-22.618,-0.007 -22.81,-0.091 -23.558,0.697c-0.938,0.987 -0.19,26.669 -0.476,28.149c-0.426,2.203 -3.949,1.681 -6.448,1.691c-22.261,0.083 -22.632,-0.269 -23.541,0.664c-0.549,0.563 -0.46,1.614 -0.459,15.315c0.001,13.202 0.348,14.057 -1.711,14.492c-1.15,0.243 -181.323,0.052 -197.091,0.035c-14.368,-0.015 -15.104,0.327 -15.615,-1.507c-0.251,-0.901 -0.036,-26.397 -0.138,-27.041c-0.387,-2.447 -3.628,-1.947 -8.87,-1.944c-50.871,0.023 -50.996,0.008 -51.547,-0.503c-1.117,-1.037 -0.418,-14.611 -0.594,-22.229c-0.15,-6.501 0.125,-7.088 -1.642,-7.594c-1.788,-0.512 -108.935,-0.107 -118.602,-0.227c-3.592,-0.045 -2.852,-1.509 -2.855,-5.077c-0.02,-24.819 0.18,-25.019 -0.615,-25.836c-0.589,-0.605 -0.752,-0.507 -29.352,-0.509c-29.602,-0.002 -29.773,0.097 -30.507,-0.607c-0.682,-0.655 -0.369,-0.849 -0.527,-26.982c-0.019,-3.087 -1.04,-2.899 -4.145,-2.899c-25.93,-0.003 -26.128,0.115 -26.905,-0.685c-1.058,-1.088 -0.22,-26.964 -0.51,-28.032c-0.39,-1.435 -0.598,-1.901 -6.59,-1.902c-53.129,-0.004 -53.289,0.081 -53.917,-0.519c-1.495,-1.432 0.338,-27.787 -1.099,-29.371c-1.585,-1.747 -27.78,0.214 -29.328,-1.184c-0.796,-0.72 -0.689,-0.956 -0.7,-43.295c-0.004,-16.816 0.092,-16.954 -0.536,-17.609c-0.97,-1.011 -18.629,-0.351 -28.145,-0.525c-3.376,-0.062 -2.726,-1.624 -2.729,-11.18c-0.005,-18.021 0.003,-18.179 -0.716,-18.87c-1.392,-1.336 -27.68,0.566 -29.309,-1.156c-0.961,-1.016 -0.468,-1.297 -0.548,-89.025c-0.029,-31.856 0.167,-32.073 -0.664,-32.899c-0.55,-0.547 -0.703,-0.304 -27.02,-0.482c-3.085,-0.021 -2.872,-1.056 -2.871,-4.144c0.032,-64.951 -0.071,-422.89 0.048,-423.426c0.425,-1.902 1.217,-1.604 16.885,-1.604c12.165,-0 12.904,0.349 13.442,-1.649c0.375,-1.391 0.07,-112.343 0.181,-118.597c0.064,-3.617 1.528,-2.877 5.139,-2.882c22.589,-0.029 23.937,0.19 24.712,-0.515c0.701,-0.639 0.7,-4.41 0.7,-4.798c-0.014,-55.614 -0.018,-55.732 0.455,-56.217c0.561,-0.576 0.689,-0.501 16.347,-0.497c13.246,0.003 14.164,0.362 14.579,-1.812c0.088,-0.459 0.014,-118.037 0.041,-118.521c0.165,-3.017 1.135,-2.749 4.142,-2.75c24.906,-0.006 25.117,0.136 25.908,-0.694c0.93,-0.977 0.187,-26.688 0.47,-28.154c0.447,-2.312 4.941,-1.706 5.282,-1.705c4.312,0.001 53.802,0.017 53.895,0.001c2.376,-0.408 1.963,-2.792 1.963,-13.619c-0,-15.691 -0.255,-16.387 1.464,-16.833c0.478,-0.124 0.481,-0.099 350.746,-0.108c14.519,-0 15.282,-0.294 15.722,1.565c0.151,0.639 0.02,26.632 0.085,27.049c0.364,2.337 1.437,1.922 19.372,1.933c71.102,0.044 71.112,-0.054 71.63,0.064c2.169,0.494 1.505,1.522 1.59,26.199c0.008,2.432 -0.722,4.301 4.172,4.302c55.353,0.014 55.517,-0.142 56.211,0.47c0.861,0.759 0.457,1.001 0.621,28.054c0.019,3.085 1.039,2.898 4.142,2.899c163.975,0.038 163.966,-0.121 178.224,0.001c3.053,0.026 2.798,1.075 2.803,4.139c0.042,24.943 -0.084,25.125 0.666,25.87c0.548,0.544 0.698,0.475 93.871,0.474c27.137,-0 27.326,-0.087 28.075,0.69c0.583,0.605 0.494,1.22 0.493,16.355c-0,12.075 -0.379,12.924 1.795,13.444c0.5,0.119 0.493,0.142 73.999,0.13c14.495,-0.002 15.251,-0.326 15.703,1.539c0.178,0.735 0.033,52.004 0.077,57.58c0.024,3.11 1.066,2.899 4.155,2.9c23.721,0.003 23.722,0.279 25.765,0.007c0.619,-0.082 1.171,-0.471 1.791,-0.553Z" style="fill:#fefefe;fill-opacity:1;"/><path d="M613.982,734.328c0.028,0.054 0.055,0.976 0.946,1.827c1.298,1.24 1.509,0.844 5.639,0.85c88.9,0.135 144.782,-0.157 145.336,0.023c2.211,0.719 1.883,1.512 1.88,16.043c-0.003,12.597 -0.947,14.483 2.858,14.557c1.971,0.038 1.963,-0.127 24.64,-0.006c4.171,0.022 3.362,1.888 3.343,10.075c-0.186,80.234 0.148,80.433 -0.564,81.255c-1.032,1.191 -1.436,0.757 -13.326,0.898c-15.052,0.178 -16.546,-0.962 -16.992,2.2c-0.354,2.514 0.089,2.513 0.073,31.734c-0.002,4.506 -0.03,56.162 0.034,56.328c0.029,0.075 0.733,0.864 0.799,0.937c1.054,1.18 1.8,0.954 2.012,1.066c-0.068,0.036 -1.568,-0.181 -2.62,1.396c-0.232,0.348 -0.057,0.874 -0.289,1.222c-0.194,-0.283 -0.439,-2.586 -2.944,-2.655c-1.359,-0.037 -32.372,-0 -35.187,0.003c-24.765,0.03 -228.58,0.276 -309.566,0.034c-19.67,-0.059 -20.087,0.071 -20.605,-1.102c-0.453,-1.026 -0.382,-33.849 -0.299,-57.227c0.007,-1.882 -0.385,-1.766 -1.355,-3.399c-1.793,0.131 -1.764,0.259 -3.543,0.258c-10.06,-0.007 -23.229,0.027 -23.479,0.017c-3.148,-0.131 -2.495,-1.589 -2.554,-12.12c-0.096,-16.969 0.774,-18.482 -2.116,-18.659c-2.813,-0.172 -26.96,0.03 -29.304,0.05c-23.043,0.193 -27.809,-0.455 -29.002,0.299c-1.556,0.984 -0.958,1.496 -0.929,22.997c0.068,51.394 0.275,67.217 -0.493,68.061c-0.771,0.847 -0.933,0.814 -15.308,0.776c-13.198,-0.034 -14.211,0.487 -14.794,-2.045c-0.197,-0.856 -0.069,-107.832 -0.058,-117.208c0.006,-4.673 2.067,-3.697 8.986,-3.745c20.365,-0.141 20.732,0.199 21.263,-0.833c0.992,-1.928 0.162,-26.773 0.712,-28.385c0.525,-1.539 1.108,-1.359 16.723,-1.357c12.151,0.002 13.045,0.326 13.605,-2.094c0.109,-0.473 -0.034,-26.342 0.118,-26.994c0.479,-2.063 1.861,-1.791 15.592,-1.783c13.423,0.007 14.158,0.332 14.84,-1.728c0.384,-1.162 -0.388,-26.689 0.534,-27.979c0.996,-1.394 1.48,-0.693 49.122,-0.986c11.075,-0.068 11.612,0.191 12.086,-1.296c0.316,-0.99 0.094,-26.315 0.19,-27.074c0.366,-2.886 4.107,-2.19 5.311,-2.188c50.031,0.002 100.062,0.004 150.093,0.006c27.069,0.068 27.355,-0.157 28.243,0.903c0.305,0.364 0.392,0.433 0.35,27.049Z"/><path d="M491.453,397.8c-0.147,-1.784 -0.29,-1.751 -0.291,-3.547c-0.014,-24.484 0.19,-24.471 0.284,-24.696c0.602,-1.433 1.192,-1.074 30.623,-1.062c29.019,0.012 29.047,0.013 29.301,-0.138c1.422,-0.844 1.18,-1.728 1.125,-10.453c-0.12,-19.096 0.148,-19.52 -1.044,-20.055c-0.494,-0.221 -0.507,-0.385 -31.727,-0.366c-46.463,0.028 -46.46,0.077 -47.001,0.312c-1.218,0.528 -1.028,0.941 -1.028,17.763c-0,7.915 0.814,10.122 -3.568,9.986c-2.823,-0.088 -2.818,-0.079 -37.52,-0.079c-61.189,0 -61.385,0.08 -62.041,-0.625c-0.644,-0.692 -0.53,-0.857 -0.546,-73.774c-0.003,-13.322 0.373,-14.21 -1.961,-14.816c-0.211,-0.055 -15.049,-0.052 -21.051,-0.025c-5.164,0.022 -7.41,1.283 -7.451,-3.911c-0.197,-24.983 0.642,-25.637 -1.033,-26.455c-0.615,-0.3 -0.643,-0.158 -80.636,-0.264c-8.826,-0.012 -10.428,0.679 -10.491,-2.609c-0.04,-2.063 -0.309,-15.906 -0.059,-25.795c0.075,-2.985 1.699,-2.787 4.679,-2.801c49.632,-0.238 49.631,0.137 53.943,-0.048c3.774,-0.162 2.904,-2.745 2.879,-6.539c-0.141,-21.52 0.282,-22.237 0.364,-22.433c0.531,-1.263 1.324,-1.114 15.524,-1.116c74.804,-0.012 74.81,-0.04 75.069,0.025c2.002,0.507 1.448,1.902 1.506,17.666c0.038,10.448 -0.481,11.856 2.032,12.396c0.298,0.064 39.44,0.024 46.866,0.068c10.718,0.064 11.691,-0.245 12.341,1.709c0.046,0.138 0.053,3.147 0.054,3.421c0.061,24.637 -0.138,24.872 0.687,25.553c1.142,0.943 7.683,0.262 86.584,0.367c3.421,0.005 4.892,-0.288 4.93,4.562c0.155,19.904 -0.752,25.12 0.894,25.868c1.008,0.458 3.712,0.38 76.26,0.347c13.376,-0.006 14.082,0.3 14.759,-1.688c0.135,-0.396 -0.025,-57.295 -0.021,-57.386c0.12,-3.402 2.835,-2.77 7.54,-2.777c21.799,-0.033 21.819,0.131 22.335,0.356c1.217,0.531 1.127,1 1.137,14.175c-0.011,14.853 -0.021,29.706 -0.032,44.559c-0.02,31.601 0.468,31.993 -0.941,33.161c-1.157,0.959 -26.722,0.036 -28.457,0.567c-1.793,0.549 -1.504,1.258 -1.557,17.865c-0.035,10.761 0.566,12.428 -3.037,12.432c-47.464,0.052 -56.162,-0.374 -57.244,0.685c-1.609,1.574 0.065,26.752 -1.021,29.313c-0.664,1.565 -2.957,0.968 -26.162,1.065c-3.109,0.013 -4.585,-0.897 -4.497,2.237c0.011,0.391 -0.013,0.783 -0.015,1.175c-0.014,2.969 0.129,22.818 -0.012,24.641c-0.237,3.063 -3.044,2.451 -8.375,2.455c-47.477,0.037 -47.472,0.004 -51.6,0.017l-1.296,-1.289Z"/><path d="M859.203,461.151c-0.336,-0.095 -0.318,0.114 -0.629,0.026c-0.597,-0.169 -0.492,-0.373 -1.107,-0.516c-0.342,-0.08 -36.71,-0.046 -39.902,-0.043c-17.533,0.016 -18.33,-0.285 -18.797,1.64c-0.12,0.493 -0.337,83.861 0.02,89.129c-0.436,0.287 -0.753,0.731 -1.188,1.017c-1.2,0.79 -3.11,0.533 -22.248,0.509c-5.956,-0.007 -7.786,0.65 -7.774,-3.876c0.234,-88.552 -0.316,-88.527 -0.016,-177.059c0.11,-32.672 -0.369,-33.029 0.798,-33.948c1.664,-1.31 28.559,0.52 29.457,-1.054c0.909,-1.593 0.651,-1.749 0.676,-71.707c0.006,-18.135 -0.354,-18.792 1.575,-19.616c0.701,-0.299 27.006,-0.345 27.892,0.033c1.78,0.759 1.122,1.541 1.282,55.935c0.1,33.958 -0.472,34.374 0.954,35.56c0.713,0.593 0.866,0.373 48.345,0.4c194.666,0.113 194.907,-0.261 195.736,0.503c0.616,0.568 0.969,0.893 0.75,10.442c-0.268,11.67 -0.082,11.633 -0.096,32.833c-0.011,16.325 0.284,17.181 -1.735,17.596c-0.817,0.168 -54.398,0.01 -57.441,0.195c-3.027,0.184 -2.318,3.273 -2.317,8.005c0.005,20.95 0.048,21.112 -0.509,21.943c-1.552,2.316 -29.61,-0.225 -31.239,1.47c-0.723,0.752 -0.612,0.919 -0.612,18.801c0,9.866 0.456,10.665 -1.755,11.321c-0.288,0.086 -82.968,0.017 -85.541,0.039c-2.232,0.019 -1.944,0.719 -2.702,1.374c-0.146,0.126 -0.488,-0.021 -0.556,0.159c-0.139,0.366 0.041,0.781 0.052,1.172c0.016,0.564 0.012,3.243 0.011,3.525c-0.037,22.567 0.084,22.654 -0.409,23.438c-0.289,0.459 -0.798,0.752 -1.087,1.211c-4.333,-0.576 -4.338,-0.286 -17.583,-0.337c-9.582,-0.037 -11.469,0.43 -11.882,-2.01c-0.006,-0.035 -0.11,-13.356 0.012,-26.992c0.484,-0.342 0.821,-0.864 1.305,-1.205c0.768,-0.542 0.808,-0.57 11.739,-0.597c1.221,-0.003 14.4,-0.035 15.268,0.086c0.41,0.057 0.872,0.579 1.198,0.325c2.265,-1.764 0.552,-7.919 1.238,-56.065c0.028,-1.968 0.697,-5.555 -2.474,-5.719c-0.929,-0.048 -52.732,-0.145 -56.256,0.061c-2.951,0.172 -2.355,1.565 -2.374,15.038c-0.02,14.233 -0.363,15.465 2.305,15.661c1.77,0.13 25.595,-0.357 27.269,0.291c1.858,0.72 0.931,1.507 1.063,25.088c0.002,0.281 0.016,2.913 0.048,3.513c0.091,1.745 -0.496,1.57 -0.762,2.409Z"/><path d="M799.975,552.572c26.945,0.593 28.78,-1.124 29.229,2.341c0.043,0.329 0.165,30.348 0.017,56.274c-0.021,3.602 1.696,2.911 11.797,2.906c17.56,-0.009 18.519,-0.441 18.948,1.748c0.34,1.736 0.068,178.035 0.044,193.517c-0.12,77.549 0.334,79.63 -0.547,80.621c-0.839,0.944 -2.43,0.694 -18.444,0.704c-10.256,0.006 -11.296,0.217 -11.738,-1.585c-0.169,-0.687 0.039,-16.702 -0.073,-30.49c-0.033,-4.016 0.018,-211.378 -0.159,-212.176c-0.426,-1.918 -1.232,-1.645 -18.519,-1.636c-40.742,0.02 -40.758,-0.053 -41.078,0.091c-0.354,0.16 -0.54,0.558 -0.821,0.826c-1.161,1.109 -0.739,1.35 -0.993,1.815c-0.195,-0.358 0.062,-0.858 -0.133,-1.216c-0.039,-0.072 -0.152,0.116 -0.843,-0.576c-0.427,-0.427 -0.247,-0.515 -0.645,-0.913c0.118,-0.154 1.474,-1.923 1.474,-1.923c0.499,-1.117 0.134,-1.183 0.162,-15.293c0.022,-10.824 -0.44,-12.974 1.679,-13.378c2.962,-0.564 27.358,0.297 28.365,-0.607c0.915,-0.821 0.792,-1.059 0.804,-28.231c0.013,-30.636 -0.1,-30.736 0.462,-31.635c0.275,-0.44 0.736,-0.743 1.011,-1.183Z"/><path d="M647.524,644.7c-0.358,0.198 -0.858,-0.034 -1.216,0.164c-0.288,0.16 -0.325,0.582 -0.555,0.817c-0.723,0.738 -0.839,0.571 -0.88,0.648c-0.305,0.577 0.196,0.645 -0.098,1.2c-0.217,-0.395 0.229,-0.67 -1.023,-1.858c-1.292,-1.227 -1.447,-0.921 -3.248,-0.92c-17.256,0.008 -24.972,0.395 -25.947,-0.582c-0.688,-0.69 -0.615,-0.852 -0.598,-18.911c0.009,-9.653 0.591,-11.227 -2.779,-11.254c-1.97,-0.016 -1.942,0.069 -24.627,-0.01c-3.718,-0.013 -2.898,-2.131 -2.883,-3.988c0.014,-1.782 0.139,-17.124 0.021,-22.273c-0.06,-2.643 0.663,-3.493 -1.889,-4.147c-0.095,-0.024 -37.691,-0.039 -40.968,-0.04c-17.597,-0.007 -18.414,0.275 -18.826,-1.661c-0.147,-0.693 0.133,-57.184 -0.335,-58.466c-0.614,-1.685 -1.303,-1.299 -20.709,-1.402c-7.572,-0.04 -7.613,0.28 -8.21,0.007c-0.221,-0.101 -0.045,-0.516 -0.202,-0.701c-0.201,-0.237 -0.596,-0.243 -0.799,-0.478c-0.269,-0.312 -0.493,-0.694 -0.562,-1.1c-0.046,-0.273 -0.062,-25.784 -0.06,-25.847c0.118,-3.548 1.6,-2.678 5.138,-2.672c8.383,0.012 84.599,-0.153 85.66,0.066c2.157,0.445 1.965,1.569 1.939,13.189c-0.036,16.203 0.146,16.571 -1.027,17.22c-1.178,0.652 -25.416,0.177 -27.942,0.332c-3.165,0.195 -2.298,4.679 -2.297,4.728c0.298,23.967 -0.6,24.483 1.138,25.781c0.96,0.717 56.896,0.01 58.559,0.301c2.952,0.516 1.442,2.04 1.743,27.847c0.047,4.023 3.449,2.866 10.044,2.865c19.417,-0.004 19.522,0.027 20.053,0.527c1.216,1.146 0.387,5.11 0.633,55.255c0.012,2.369 -0.73,2.677 0.941,4.386c1.024,1.047 1.24,0.67 1.811,0.979Z" style="fill:#010101;fill-opacity:1;"/><path d="M663.954,1075.129c-17.664,0.005 -17.876,0.058 -18.664,-0.835c-1.077,-1.219 -0.087,-27.626 -0.672,-28.993c-0.577,-1.35 -1.122,-1.047 -29.914,-1.066c-74.491,-0.049 -74.455,0.25 -148.923,-0.025c-1.969,-0.007 -4.992,0.758 -5.137,-2.642c-0.047,-1.112 -0.049,-21.608 -0.049,-23.487c-0,-3.637 0.375,-4.361 4.022,-4.416c0.623,-0.009 208.967,-0.224 209.752,0.064c1.93,0.709 1.012,1.536 1.374,24.288c0.069,4.311 -0.857,6.116 3.452,6.146c55.445,0.389 57.233,-1.226 57.818,1.999c0.034,0.186 0.016,27.07 0.012,27.097c-0.418,2.312 -1.464,1.861 -21.476,1.878c-17.198,-0.002 -34.396,-0.004 -51.594,-0.007Z" style="fill:#010101;"/><path d="M214.447,734.321c0.184,0.36 -0.023,0.842 0.161,1.202c0.145,0.284 0.531,0.36 0.754,0.589c0.236,0.243 0.311,0.655 0.61,0.814c0.357,0.191 0.848,-0.036 1.205,0.155c-0.662,0.355 -0.878,-0.042 -1.882,1.01c-0.286,0.3 -0.716,0.495 -0.885,0.874c-0.076,0.17 0.041,14.47 -0.014,31.693c-0.083,25.722 0.183,25.82 -0.546,27.132c-0.509,0.916 -1.723,0.674 -17.766,0.701c-10.453,0.017 -11.831,-0.52 -12.049,2.634c-0.073,1.051 -0.037,146.979 -0.022,147.779c0.044,2.324 0.639,2.139 2.69,3.194c-0.554,0.319 -0.65,-0.251 -1.196,0.064c-0.138,0.079 -0.914,0.526 -1.385,1.421c-0.184,0.35 0.198,0.836 0.014,1.186c-1.384,-2.501 -1.626,-2.586 -4.462,-2.628c-4.38,-0.065 -24.137,0.016 -24.563,-0.113c-2.099,-0.632 -1.718,-1.32 -1.854,-7.818c-0.144,-6.893 0.012,-149.954 0.027,-162.993c0.013,-12.022 -0.114,-12.139 0.577,-12.909c1.597,-1.78 27.986,0.127 29.358,-1.12c0.957,-0.87 0.727,-1.114 0.723,-23.495c-0.001,-3.99 -0.717,-6.437 2.777,-6.647c1.88,-0.113 22.638,0.018 24.607,0.031c2.773,0.018 2.905,-2.361 3.124,-2.754Z" style="fill:#010101;"/><path d="M890.263,492.755c0.444,-0.3 0.759,-0.766 1.203,-1.065c1.08,-0.73 3.893,-0.537 5.836,-0.537c53.184,0.001 53.333,-0.039 53.895,0.487c0.994,0.93 0.537,1.185 0.828,25.744c0.037,3.089 -0.381,4.523 3.91,4.523c4.315,0 51.815,0.002 53.938,-0.017c1.878,-0.017 2.307,0.595 3.194,-1.034c0.756,-1.387 0.285,-22.372 0.418,-26.924c0.095,-3.259 1.335,-2.724 4.59,-2.756c1.84,-0.018 23.262,0.03 23.478,0.036c3.44,0.104 2.796,2.478 2.79,6.234c-0.038,23.122 0.234,23.44 -0.793,24.188c-1.492,1.086 -27.624,0.064 -28.968,0.735c-1.47,0.733 -1.023,2.001 -1.116,18.463c-0.059,10.456 0.428,11.837 -2.382,12.054c-1.381,0.107 -84.511,0.123 -86.834,0.059c-3.971,-0.109 -2.836,-2.883 -2.848,-9.766c-0.033,-19.626 0.156,-19.95 -0.95,-20.662c-1.675,-1.078 -27.253,0.043 -28.875,-0.734c-2.235,-1.071 -0.503,-9.798 -1.314,-29.028Z" style="fill:#010101;"/><path d="M612.401,736.904c1.166,1.53 1.589,1.374 1.611,3.266c0.354,30.943 0.03,77.683 -0.017,84.438c-0.022,3.164 0.329,4.272 -2.822,4.356c-2.257,0.06 -55.587,0.074 -56.234,0.009c-2.415,-0.245 -2.123,-1.303 -2.126,-13.751c-0.017,-69.048 -0.114,-69.042 -0.079,-75.045c0.022,-3.827 1.719,-3.099 9.202,-3.074c44.274,0.146 46.435,0.026 50.466,-0.198Z" style="fill:#fefefe;"/><path d="M491.453,397.8l1.296,1.289c-0.129,0.158 -0.057,0.425 -0.186,0.583c-0.623,0.761 -1.423,0.392 -1.444,2.786c-0.115,12.818 0.594,25.82 -0.72,26.962c-0.71,0.617 -0.848,0.599 -75.036,0.539c-1.313,-0.001 -1.308,0.071 -16.418,0.08c-4.688,0.003 -58.098,0.038 -58.597,-0.012c-3.418,-0.34 -2.768,-1.78 -2.76,-12.32c0.011,-13.764 -0.279,-16.818 0.608,-17.526c0.618,-0.494 1.502,-0.572 2.12,-1.066c40.987,-0.345 132.692,-0.079 144.23,-0.045c4.593,0.013 4.599,0.031 4.696,-0.006c0.793,-0.303 1.419,-0.961 2.212,-1.264Z" style="fill:#020202;"/><path d="M647.524,644.7c109.02,0.152 109.019,-0.164 118.494,0.122c0.398,0.398 0.218,0.486 0.645,0.913c0.692,0.692 0.804,0.504 0.843,0.576c0.195,0.358 -0.062,0.858 0.133,1.216c0.003,5.866 0.006,11.733 0.008,17.599c0.008,8.079 0.323,9.404 -0.789,10.148c-0.971,0.649 -1.122,0.319 -109.94,0.414c-10.642,0.009 -11.792,0.393 -12.079,-2.317c-0.109,-1.03 -0.07,-23.775 -0.066,-25.842c0.294,-0.555 -0.208,-0.623 0.098,-1.2c0.041,-0.077 0.158,0.089 0.88,-0.648c0.23,-0.235 0.267,-0.658 0.555,-0.817c0.358,-0.198 0.858,0.034 1.216,-0.164Z" style="fill:#000101;"/><path d="M399.061,889.1c0.281,-39.162 -0.535,-57.661 0.646,-58.977c0.724,-0.807 0.892,-0.824 19.172,-0.915c3.189,-0.016 38.313,-0.191 39.867,0.097c2.155,0.4 1.818,1.298 1.872,15.233c0.014,3.558 0.17,43.803 -0.043,44.473c-0.648,2.036 -1.434,1.591 -17.07,1.609c-3.379,0.004 -42.019,0.047 -42.232,-0.01c-0.397,-0.106 -0.781,-0.307 -1.086,-0.583c-0.343,-0.311 -0.056,-0.479 -0.398,-0.761c-0.31,-0.255 -0.417,0.091 -0.728,-0.166Z" style="fill:#fefefe;"/><path d="M479.851,737.142c37.182,-0.076 40.019,-0.201 41.25,0.399c1.033,0.503 0.858,0.891 0.903,26.085c0.005,2.626 0.057,31.895 -0.049,32.821c-0.285,2.485 -1.806,2 -12.785,2.007c-3.748,0.002 -46.61,0.03 -46.854,-0.037c-2.248,-0.615 -1.775,-1.456 -1.79,-12.51c-0.064,-47.045 -0.339,-47.276 0.501,-48.149c0.54,-0.561 0.648,-0.715 18.823,-0.617Z" style="fill:#fefefe;"/><path d="M614.007,871.506c-0,3.754 -0.002,46.037 -0.038,46.928c-0.142,3.501 -1.707,2.999 -13.335,2.999c-46.081,-0.001 -46.263,0.138 -47.01,-0.552c-1.043,-0.963 -0.721,-1.251 -0.79,-32.959c-0.058,-26.67 0.07,-26.759 0.535,-27.273c0.882,-0.974 1.116,-0.638 14.432,-0.671c3.561,-0.009 43.563,-0.107 44.509,0.054c2.074,0.353 1.688,1.914 1.696,11.473Z" style="fill:#fefefe;"/><path d="M491.095,872.679c0.002,-8.209 0.004,-16.418 0.006,-24.627c0.053,-17.481 -0.303,-18.295 1.647,-18.781c1.264,-0.315 19.424,-0.12 21.113,-0.102c6.341,0.068 8.131,-0.664 8.148,3.641c0.026,6.848 0.288,76.803 0.001,85.597c-0.116,3.553 -1.908,3.024 -9.321,3.032c-20.1,0.022 -20.306,0.072 -21.024,-0.754c-0.674,-0.776 -0.532,-0.948 -0.569,-48.007Z" style="fill:#fefefe;"/><path d="M186.703,952.097c25.914,-0.01 26.033,-0.064 26.814,0.53c1.251,0.952 0.869,5.488 0.916,25.587c0.007,2.985 -0.264,3.97 2.718,4.077c8.849,0.316 26.558,-0.723 27.806,0.919c0.228,0.301 0.671,0.31 0.56,16.112c-0.09,12.822 0.328,14.076 -2.504,14.294c-0.457,0.035 -56.186,0.222 -57.501,-0.163c-2.063,-0.604 -1.332,-1.69 -1.403,-29.375c-0.069,-26.98 0.04,-26.965 0.027,-29.31c0.184,-0.35 -0.198,-0.836 -0.014,-1.186c0.471,-0.895 1.248,-1.342 1.385,-1.421c0.547,-0.314 0.642,0.255 1.196,-0.064Z" style="fill:#000101;"/><path d="M859.203,461.151c0.265,-0.839 0.853,-0.664 0.762,-2.409c-0.031,-0.6 -0.046,-3.232 -0.048,-3.513c-0.132,-23.581 0.794,-24.368 -1.063,-25.088c-1.673,-0.648 -25.499,-0.161 -27.269,-0.291c-2.667,-0.196 -2.325,-1.428 -2.305,-15.661c0.019,-13.473 -0.577,-14.866 2.374,-15.038c3.524,-0.205 55.327,-0.109 56.256,-0.061c3.172,0.164 2.502,3.752 2.474,5.719c-0.686,48.147 1.027,54.301 -1.238,56.065c-0.327,0.254 -0.788,-0.268 -1.198,-0.325c-0.868,-0.121 -14.046,-0.089 -15.268,-0.086c-10.931,0.027 -10.971,0.055 -11.739,0.597c-0.484,0.342 -0.821,0.864 -1.305,1.205l-0.434,-1.116Z" style="fill:#fefefe;"/><path d="M214.447,734.321c-0.015,-4.129 -0.134,-35.81 -0.044,-51.608c0.029,-5.016 -1.044,-7.153 3.962,-7.112c6.901,0.057 23.602,0.033 24.623,0.1c3.013,0.199 2.441,3.644 2.434,7.016c-0.099,52.13 0.567,52.38 -0.451,53.635c-0.673,0.829 -0.903,0.814 -27.793,0.729c-0.357,-0.191 -0.848,0.036 -1.205,-0.155c-0.299,-0.16 -0.374,-0.571 -0.61,-0.814c-0.222,-0.229 -0.609,-0.305 -0.754,-0.589c-0.184,-0.36 0.023,-0.842 -0.161,-1.202Z" style="fill:#000100;"/><path d="M397.761,613.499c0.442,0.794 0.884,1.587 1.326,2.381c-0.487,26.43 1.473,28.768 -2.517,28.908c-1.281,0.045 -25.543,-0.011 -25.794,0.044c-2.593,0.566 -2.347,1.235 -2.352,3.879c-0.004,1.969 -0.05,24.233 -0.086,24.614c-0.295,3.128 -1.853,2.214 -19.814,2.365c-5.271,0.044 -5.237,0.033 -9.38,-0.051c-0.168,-0.174 -0.076,-0.509 -0.244,-0.683c-0.227,-0.236 -0.651,-0.219 -0.864,-0.468c-0.952,-1.108 -0.455,-1.316 -0.446,-25.78c0.001,-1.903 -0.336,-3.861 2.686,-3.983c1.185,-0.048 21.613,0.003 23.492,0.007c0.787,0.002 1.579,-0.073 2.362,0.014c0.407,0.045 0.781,0.508 1.17,0.378c1.343,-0.446 0.924,-0.85 0.907,-2.279c-0.082,-6.654 0.116,-23.734 0.139,-25.798c0.052,-4.499 3.638,-2.786 10.67,-2.917c15.998,-0.299 16.004,0.238 17.628,-0.138c0.397,-0.092 0.721,-0.402 1.118,-0.494Z" style="fill:#020202;"/><path d="M770.661,952.116c26.345,0.116 27.244,-0.428 27.803,1.579c0.113,0.404 0.213,0.381 0.181,43.28c-0.011,15.355 0.041,15.69 -1.065,16.317c-1.384,0.784 -1.513,0.246 -19.882,0.301c-8.204,0.025 -9.662,0.476 -9.919,-2.485c-0.079,-0.907 -0.031,-51.864 -0.027,-56.373c0.232,-0.348 0.057,-0.874 0.289,-1.222c1.052,-1.577 2.552,-1.36 2.62,-1.396Z" style="fill:#010101;"/><path d="M737.128,909.03c-0.012,10.698 0.542,12.196 -2.831,12.396c-1.141,0.067 -21.562,0.023 -23.437,0.019c-0.348,-0.001 -3.669,-0.008 -4.238,-0.965c-0.775,-1.303 -0.035,-35.131 -0.372,-57.181c-0.065,-4.26 2.155,-3.371 6.956,-3.404c1.778,-0.012 20.914,-0.142 22.225,0.118c1.929,0.383 1.667,1.215 1.696,19.701c0.001,9.772 0.001,19.544 0.002,29.316Z" style="fill:#fefefe;"/><path d="M306.883,703.862c0.192,0.354 0.017,0.835 0.209,1.189c0.153,0.281 0.558,0.341 0.757,0.591c0.295,0.371 0.404,0.868 0.7,1.239c-0.359,0.637 -1.169,0.938 -1.528,1.575c-0.061,0.109 -0.033,0.12 -0.026,45.79c0.002,12.058 0.307,12.966 -1.747,13.396c-2.222,0.465 -17.365,0.137 -18.874,0.104c-8.669,-0.188 -9.382,0.357 -9.945,-1.585c-0.044,-0.151 -0.21,-0.133 -0.174,-42.401c0.013,-15.588 -0.442,-16.528 1.967,-17.179c0.266,-0.072 15.636,-0.19 21.047,-0.122c5.161,0.065 5.373,0.396 6.71,-0.852c1.077,-1.005 0.637,-1.229 0.904,-1.743Z" style="fill:#010101;"/><path d="M665.127,921.424c-17.92,0.003 -18.08,0.06 -18.94,-0.225c-1.712,-0.567 -1.447,-1.511 -1.43,-13.343c0.068,-46.405 -0.278,-46.777 0.816,-47.563c1.042,-0.749 1.142,-0.511 16.034,-0.408c12.296,0.085 13.5,-0.41 13.769,2.274c0.133,1.324 0.078,56.069 0.075,56.245c-0.061,3.699 -1.726,3.023 -10.325,3.02Z" style="fill:#fefefe;"/><path d="M737.113,775.351c-0.014,52.067 0.094,52.196 -0.402,52.801c-0.978,1.194 -1.762,0.784 -18.818,0.856c-9.844,0.041 -11.365,0.318 -11.533,-2.08c-0.023,-0.332 0.032,-57.378 0.036,-57.401c0.335,-2.053 1.238,-1.78 18.535,-1.776c4.688,0.001 4.656,-0.12 9.365,-0.067c3.518,0.039 2.812,2.541 2.818,7.668Z" style="fill:#fefefe;"/><path d="M659.264,767.674c14.937,0.011 15.868,-0.302 16.226,1.845c0.049,0.292 -0.055,48.518 -0.064,52.737c-0.006,2.636 0.651,6.511 -2.129,6.716c-1.224,0.091 -26.343,0.129 -26.849,-0.055c-1.967,-0.716 -1.652,-1.425 -1.626,-18.388c0.062,-40.769 -0.438,-40.999 0.502,-42.104c0.725,-0.853 3.281,-0.749 13.94,-0.752Z" style="fill:#fefefe;"/><path d="M458.766,552.722c0.276,-0.398 1.822,-0.328 1.779,-4.85c-0.014,-1.5 0.109,-1.489 -0.018,-18.756c-0.029,-3.956 -1.072,-7.065 2.909,-7.149c0.955,-0.02 18.361,0.015 23.454,-0c1.792,-0.005 1.889,-0.455 3.473,0.425c0.417,0.232 0.992,0.388 1.162,0.834c0.101,0.266 -0.406,0.228 -0.414,3.536c-0.056,24.348 0.275,24.66 -0.843,25.592c-0.548,0.457 -0.64,0.414 -25.652,0.648c-2.018,0.019 -2.299,-0.072 -2.384,-0.052c-0.201,0.048 0.049,0.322 -1.75,1.905c-0.572,-0.711 -1.145,-1.423 -1.717,-2.134Z" style="fill:#030303;"/><path d="M306.305,368.344c-4.952,0.262 -28.089,0.486 -29.151,-0.154c-1.153,-0.696 -0.981,-1.06 -1.02,-25.532c-0.006,-3.677 -0.483,-5.034 3.199,-5.074c2.07,-0.023 24.449,-0.266 25.877,0.053c2.213,0.495 1.475,1.469 1.745,14.403c0.024,1.129 0.264,12.661 -0.143,14.111c-0.174,0.619 -0.403,0.498 -0.546,1.117c-0.127,0.547 0.164,0.537 0.039,1.076Z" style="fill:#010101;"/><path d="M339.143,675.638c-0.285,0.316 0.044,0.443 -0.239,0.756c-0.343,0.381 -0.531,0.068 -0.873,0.476c-1.447,1.729 0.701,27.717 -1.255,29.27c-1.527,1.212 -14.734,-0.224 -28.228,0.741c-0.295,-0.371 -0.404,-0.868 -0.7,-1.239c-0.199,-0.251 -0.604,-0.31 -0.757,-0.591c-0.192,-0.354 -0.017,-0.835 -0.209,-1.189c0.148,-5.315 0.089,-5.275 0.101,-10.593c0.037,-16.359 -0.194,-17.146 1.684,-17.53c0.367,-0.075 18.334,-0.051 23.438,0.007c5.507,0.063 5.423,-0.58 5.897,-0.564c0.409,0.014 0.732,0.441 1.141,0.455Z" style="fill:#010101;"/><path d="M458.766,552.722c0.572,0.711 1.145,1.423 1.717,2.134c0.034,0.739 0.162,13.466 -0.009,18.806c-0.258,8.065 1.033,9.227 -1.605,9.837c-1.504,0.348 -23.84,0.106 -25.913,0.084c-1.283,-0.014 -1.203,-0.255 -2,-0.925c-0.343,-0.289 -0.788,-0.439 -1.132,-0.728c0.541,-18.371 -0.735,-27.97 1.047,-28.895c1.27,-0.659 19.08,0.089 27.894,-0.314Z" style="fill:#030404;"/><path d="M307.493,368.633c2.145,-0.229 3.097,-0.33 26.959,-0.169c3.716,0.025 3.162,1.854 3.152,9.375c-0.023,16.447 -0.168,16.433 0.272,19.954c-0.18,0.107 -2.249,1.343 -2.249,1.343c-1.862,0.235 -1.857,-0.125 -23.454,-0.074c-3.898,0.009 -5.227,0.282 -5.222,-3.635c0.035,-24.599 0.029,-24.601 0.043,-24.655c0.157,-0.61 0.353,-0.512 0.498,-1.137c0.116,-0.496 -0.123,-0.472 0,-1.001Z" style="fill:#010202;"/><path d="M428.331,583.445c0.425,0.528 0.225,0.627 0.664,1.171c0.664,0.825 0.825,0.629 0.854,0.713c0.303,0.903 0.211,5.451 0.201,5.925c-0.423,20.772 0.856,21.963 -1.686,22.629c-0.796,0.209 -24.95,0.26 -27.12,0.264c-0.314,-0.31 -0.735,-0.497 -1.049,-0.807c-0,-0 -0.992,-1.978 -1.079,-2.15c0.127,-26.221 0.16,-26.403 0.904,-27.094c1.348,-1.251 16.344,0.004 28.311,-0.652Z" style="fill:#020302;"/></g></svg>